<?xml version="1.0" encoding="UTF-8"?>
<svg id="clock_s" xmlns="http://www.w3.org/2000/svg" version="1.1" viewBox="0 0 55 45">
  <defs>
    <style>
      .cls-1 {
        fill: #c69c6d;
      }

      .cls-1, .cls-2 {
        stroke: #c69c6d;
      }

      .cls-1, .cls-2, .cls-3, .cls-4, .cls-5, .cls-6 {
        stroke-miterlimit: 10;
      }

      .cls-1, .cls-6 {
        stroke-width: .8px;
      }

      .cls-2 {
        stroke-width: .9px;
      }

      .cls-2, .cls-4, .cls-6 {
        fill: none;
      }

      .cls-3 {
        stroke-width: .5px;
      }

      .cls-3, .cls-4, .cls-5, .cls-6 {
        stroke: #fff;
      }

      .cls-3, .cls-5 {
        fill: #fff;
      }

      .cls-4 {
        stroke-width: 1.2px;
      }

      .cls-5 {
        stroke-width: .6px;
      }
    </style>
  </defs>
  <path class="cls-1" d="M26.8,41.6c10.6,0,19.2-8.6,19.2-19.2S37.4,3.2,26.8,3.2,7.6,11.8,7.6,22.4s8.6,19.2,19.2,19.2Z"/>
  <path class="cls-2" d="M26.8,43.7c11.8,0,21.4-9.6,21.4-21.4S38.6,1,26.8,1,5.4,10.6,5.4,22.4s9.6,21.4,21.4,21.4Z"/>
  <path class="cls-4" d="M27.2,8.6v-4"/>
  <path class="cls-4" d="M27.2,40.5v-4"/>
  <path class="cls-4" d="M9,22.3h4"/>
  <path class="cls-4" d="M40.3,22.3h4"/>
  <path class="cls-6" d="M35.1,7.4l-1.6,2.3"/>
  <path class="cls-6" d="M41.6,14l-2.5,1.4"/>
  <path class="cls-6" d="M41.7,31.4l-2.7-1.1"/>
  <path class="cls-6" d="M34.1,34.6l1.6,2.4"/>
  <path class="cls-6" d="M19.9,34.7l-1.6,2.3"/>
  <path class="cls-6" d="M15.2,29l-2.4,1.6"/>
  <path class="cls-6" d="M11.8,14.9l2.3,1.6"/>
  <path class="cls-6" d="M17.5,8.3l1.2,2.6"/>
  <path class="cls-4" d="M26.2,22.8l9.1-10.1"/>
  <path class="cls-6" d="M27.2,22.8c-2.4-2-4.7-4-7.1-6.1"/>
  <path class="cls-3" d="M20.8,16.1c0,.5-.6,1.3-1.3,1.2-.8-.1-1.1-1.4-.7-1.8.4-.4,1.9,0,2,.6Z"/>
  <path class="cls-3" d="M26.8,21.5c.5.2.7.8.3,1.2h0c-.4.4-1,.3-1.2-.2,0,0,0,0,0,0-.2-.6.3-1.1.9-1h0Z"/>
  <path class="cls-3" d="M36.4,13.1c-.1.6-.8.8-1.3.5-.3-.2-.6-.4-.8-.6-.5-.4-.4-1.1.1-1.4.4-.2.7-.4,1.1-.6.6-.3,1.3.2,1.1.9,0,.4-.2.8-.2,1.2Z"/>
  <path class="cls-5" d="M75.3-7.4"/>
</svg>