<svg width="130" height="130" viewBox="0 0 130 130" fill="none" xmlns="http://www.w3.org/2000/svg">
<path d="M65.5 109.031C90.0939 109.031 110.031 89.0939 110.031 64.5C110.031 39.9061 90.0939 19.9688 65.5 19.9688C40.9061 19.9688 20.9688 39.9061 20.9688 64.5C20.9688 89.0939 40.9061 109.031 65.5 109.031Z" fill="#C69C6D" stroke="#C69C6D" stroke-miterlimit="10"/>
<path d="M65.5 114C92.8381 114 115 91.8381 115 64.5C115 37.1619 92.8381 15 65.5 15C38.1619 15 16 37.1619 16 64.5C16 91.8381 38.1619 114 65.5 114Z" stroke="#C69C6D" stroke-width="1.11" stroke-miterlimit="10"/>
<path d="M66.3672 32.5547V23.1797" stroke="white" stroke-width="1.5" stroke-miterlimit="10"/>
<path d="M66.3672 106.383V97.0078" stroke="white" stroke-width="1.5" stroke-miterlimit="10"/>
<path d="M24.1797 64.289L33.5547 64.1015" stroke="white" stroke-width="1.5" stroke-miterlimit="10"/>
<path d="M96.8359 64.289L106.211 64.1015" stroke="white" stroke-width="1.5" stroke-miterlimit="10"/>
<path d="M84.6729 29.8359L80.876 35.2734" stroke="white" stroke-miterlimit="10"/>
<path d="M99.7422 45.0233L93.9297 48.2108" stroke="white" stroke-miterlimit="10"/>
<path d="M99.9063 85.3594L93.7656 82.875" stroke="white" stroke-miterlimit="10"/>
<path d="M82.4463 92.8359L86.0791 98.3671" stroke="white" stroke-miterlimit="10"/>
<path d="M49.5156 93.1172L45.7188 98.5547" stroke="white" stroke-miterlimit="10"/>
<path d="M38.6416 79.9219L33.1572 83.625" stroke="white" stroke-miterlimit="10"/>
<path d="M30.8359 47.0624L36.2734 50.8593" stroke="white" stroke-miterlimit="10"/>
<path d="M43.8447 31.8984L46.7041 37.8984" stroke="white" stroke-miterlimit="10"/>
<path d="M64.0234 65.3671L85.1172 41.9296" stroke="white" stroke-width="1.5" stroke-miterlimit="10"/>
<path d="M66.3672 65.3671C60.9063 60.6796 55.4219 55.9921 49.9609 51.3046" stroke="white" stroke-miterlimit="10"/>
<path d="M50.4685 49.0255C51.1735 49.2514 51.4081 50.1375 50.9059 50.6814C50.396 51.2335 49.8893 51.788 49.3794 52.3482C48.8771 52.9 47.9694 52.7287 47.704 52.0314C47.3854 51.1943 47.0668 50.3572 46.7482 49.5201C46.4485 48.7328 47.1966 47.9518 47.9963 48.2169C48.8208 48.4902 49.6428 48.7609 50.4685 49.0255Z" fill="white" stroke="white" stroke-width="0.64" stroke-miterlimit="10"/>
<path d="M87.4311 44.4071C87.2839 45.1326 86.4285 45.4597 85.8356 45.0163C84.4626 43.9895 83.0861 42.9792 81.6857 41.9554C81.0833 41.515 81.1575 40.594 81.8227 40.2561C83.627 39.3397 85.4313 38.4233 87.2355 37.5068C87.9866 37.1253 88.8432 37.7865 88.6639 38.6096C88.2418 40.5474 87.8241 42.4698 87.4311 44.4071Z" fill="white" stroke="white" stroke-width="0.64" stroke-miterlimit="10"/>
<path d="M65.5 67C66.8807 67 68 65.8807 68 64.5C68 63.1193 66.8807 62 65.5 62C64.1193 62 63 63.1193 63 64.5C63 65.8807 64.1193 67 65.5 67Z" fill="white" stroke="white" stroke-width="1.11" stroke-miterlimit="10"/>
</svg>
