<?xml version="1.0" encoding="UTF-8"?><svg id="clock_s" xmlns="http://www.w3.org/2000/svg" width="55" height="45" viewBox="0 0 55 45"><defs><style>.cls-1{fill:#c69c6d;}.cls-1,.cls-2{stroke:#c69c6d;}.cls-1,.cls-2,.cls-3,.cls-4,.cls-5{stroke-miterlimit:10;}.cls-1,.cls-5{stroke-width:.8px;}.cls-2{stroke-width:.89px;}.cls-2,.cls-4,.cls-5{fill:none;}.cls-3{fill:#fff;stroke-width:.51px;}.cls-3,.cls-4,.cls-5{stroke:#fff;}.cls-4{stroke-width:1.2px;}</style></defs><path class="cls-1" d="M26.81,41.6c10.61,0,19.22-8.6,19.22-19.22S37.42,3.16,26.81,3.16,7.59,11.76,7.59,22.38s8.6,19.22,19.22,19.22Z"/><path class="cls-2" d="M26.81,43.74c11.8,0,21.36-9.56,21.36-21.36S38.61,1.02,26.81,1.02,5.45,10.58,5.45,22.38s9.56,21.36,21.36,21.36Z"/><path class="cls-4" d="M27.18,8.59v-4.05"/><path class="cls-4" d="M27.18,40.45v-4.05"/><path class="cls-4" d="M8.98,22.29l4.05-.08"/><path class="cls-4" d="M40.33,22.29l4.05-.08"/><path class="cls-5" d="M35.08,7.42l-1.64,2.35"/><path class="cls-5" d="M41.59,13.97l-2.51,1.38"/><path class="cls-5" d="M41.66,31.38l-2.65-1.07"/><path class="cls-5" d="M34.12,34.61l1.57,2.39"/><path class="cls-5" d="M19.91,34.73l-1.64,2.35"/><path class="cls-5" d="M15.22,29.03l-2.37,1.6"/><path class="cls-5" d="M11.85,14.85l2.35,1.64"/><path class="cls-5" d="M17.46,8.31l1.23,2.59"/><path class="cls-4" d="M26.17,22.75l9.1-10.12"/><path class="cls-5" d="M27.18,22.75c-2.36-2.02-4.72-4.05-7.08-6.07"/><path class="cls-3" d="M20.83,16.12c.09.53-.63,1.29-1.26,1.19-.76-.12-1.1-1.43-.74-1.83.4-.44,1.89-.05,2,.64Z"/><path class="cls-3" d="M26.84,21.54c.52.17.69.82.32,1.22h0c-.37.4-1.04.28-1.23-.23,0,0,0-.02-.01-.03-.22-.58.33-1.15.92-.96h0Z"/><path class="cls-3" d="M36.39,13.13c-.12.58-.81.84-1.28.49-.27-.2-.55-.41-.83-.61-.48-.35-.42-1.09.11-1.36.37-.19.74-.37,1.1-.56.6-.31,1.29.22,1.14.88-.08.39-.17.77-.25,1.16Z"/></svg>