<svg width="31" height="31" viewBox="0 0 31 31" fill="none" xmlns="http://www.w3.org/2000/svg">
<path d="M20.3438 11.625H22.7656C23.4079 11.625 24.024 11.8802 24.4781 12.3344C24.9323 12.7885 25.1875 13.4046 25.1875 14.0469V25.6719C25.1875 26.3142 24.9323 26.9302 24.4781 27.3844C24.024 27.8386 23.4079 28.0938 22.7656 28.0938H8.23438C7.59205 28.0938 6.97604 27.8386 6.52185 27.3844C6.06766 26.9302 5.8125 26.3142 5.8125 25.6719V14.0469C5.8125 13.4046 6.06766 12.7885 6.52185 12.3344C6.97604 11.8802 7.59205 11.625 8.23438 11.625H10.6562M20.3438 7.75L15.5 2.90625M15.5 2.90625L10.6562 7.75M15.5 2.90625V19.4355" stroke="#C59F73" stroke-width="1.5" stroke-linecap="round" stroke-linejoin="round"/>
</svg>
