<svg width="59" height="59" viewBox="0 0 59 59" fill="none" xmlns="http://www.w3.org/2000/svg">
<path d="M38.7188 22.125H43.3281C44.5506 22.125 45.723 22.6106 46.5874 23.4751C47.4519 24.3395 47.9375 25.5119 47.9375 26.7344V48.8594C47.9375 50.0819 47.4519 51.2543 46.5874 52.1187C45.723 52.9831 44.5506 53.4688 43.3281 53.4688H15.6719C14.4494 53.4688 13.277 52.9831 12.4126 52.1187C11.5481 51.2543 11.0625 50.0819 11.0625 48.8594V26.7344C11.0625 25.5119 11.5481 24.3395 12.4126 23.4751C13.277 22.6106 14.4494 22.125 15.6719 22.125H20.2812M38.7188 14.75L29.5 5.53125M29.5 5.53125L20.2812 14.75M29.5 5.53125V36.9902" stroke="#C59F73" stroke-width="3" stroke-linecap="round" stroke-linejoin="round"/>
</svg>
