<?xml version="1.0" encoding="UTF-8"?>
<svg id="Layer_1" data-name="Layer 1" xmlns="http://www.w3.org/2000/svg" version="1.1" viewBox="0 0 55 55">
  <defs>
    <style>
      .cls-1, .cls-2, .cls-3, .cls-4 {
        stroke: #c69c6d;
      }

      .cls-1, .cls-2, .cls-3, .cls-4, .cls-5 {
        stroke-miterlimit: 10;
      }

      .cls-1, .cls-2, .cls-5 {
        stroke-width: .8px;
      }

      .cls-1, .cls-3, .cls-5 {
        fill: none;
      }

      .cls-2, .cls-6 {
        fill: #fff;
      }

      .cls-7, .cls-4 {
        fill: #c69c6d;
      }

      .cls-7, .cls-6 {
        stroke-width: 0px;
      }

      .cls-3, .cls-4 {
        stroke-width: .4px;
      }

      .cls-5 {
        stroke: #fff;
      }
    </style>
  </defs>
  <path class="cls-4" d="M24.3,2.5c1.5-1.3,3.7-1.3,5.2,0,3.8,3.2,7.5,6.3,11.3,9.5,2.9,2.4,1.1,7.1-2.6,7.1-7.4,0-14.9-.1-22.3-.2-3.7,0-5.4-4.7-2.6-7.1,3.7-3.1,7.4-6.2,11-9.3Z"/>
  <path class="cls-7" d="M41.8,15l-29.8-.4c-2.2,0-4,1.8-4.1,4l-.2,18.5c0,2.2,1.8,4,4,4.1l29.8.4c2.2,0,4-1.8,4.1-4l.2-18.5c0-2.2-1.8-4-4-4.1Z"/>
  <path class="cls-2" d="M10.3,14.3c0,1.3.6,2.5,1.7,3.3,4.4,3.1,8.7,6.2,13.1,9.3,1.4,1,3.4,1,4.8,0,4.1-3.2,8.2-6.3,12.3-9.5.9-.7,1.3-1.7,1.2-2.8,0-.9-.9-1.7-1.8-1.7-9.6-.4-19.2-.7-28.8-1.1-1.4,0-2.5,1.1-2.5,2.4,0,0,0,.1,0,.2Z"/>
  <path class="cls-5" d="M8.4,40.5c5.8-3.5,11.6-7,17.4-10.5,1.4-.8,3.2-.8,4.5.2,4.9,3.6,9.7,7.2,14.6,10.8"/>
  <path class="cls-6" d="M15,13.9c2.7,0,5.5.2,8.2.3l-8.2-.3Z"/>
  <path class="cls-1" d="M15,13.9c2.7,0,5.5.2,8.2.3"/>
  <path class="cls-6" d="M15.1,15.3c2.7,0,5.5.1,8.2.2l-8.2-.2Z"/>
  <path class="cls-1" d="M15.1,15.3c2.7,0,5.5.1,8.2.2"/>
  <path class="cls-6" d="M16.7,18.9c8,.1,16,.2,24,.4l-24-.4Z"/>
  <path class="cls-3" d="M16.7,18.9c8,.1,16,.2,24,.4"/>
  <path class="cls-6" d="M17.1,20.6c8,.1,16,.2,24,.4l-24-.4Z"/>
  <path class="cls-3" d="M17.1,20.6c8,.1,16,.2,24,.4"/>
  <path class="cls-6" d="M16.7,22.2c8,.1,16,.2,24,.4l-24-.4Z"/>
  <path class="cls-3" d="M16.7,22.2c8,.1,16,.2,24,.4"/>
  <path class="cls-6" d="M12.9,23.7c5.8.1,11.6.2,17.4.3l-17.4-.3Z"/>
  <path class="cls-3" d="M12.9,23.7c5.8.1,11.6.2,17.4.3"/>
</svg>