<svg width="70" height="70" viewBox="0 0 70 70" fill="none" xmlns="http://www.w3.org/2000/svg">
<path d="M29.3981 11.6383C31.2592 10.0626 33.9855 10.0598 35.8498 11.6316C40.5146 15.5643 45.1788 19.4994 49.8432 23.4337C53.4201 26.4507 51.2645 32.2905 46.5852 32.2582C37.3534 32.1946 28.1234 32.1298 18.8915 32.0662C14.2507 32.0342 12.1516 26.2455 15.6929 23.246C20.261 19.3767 24.8284 15.5072 29.3981 11.6383Z" fill="#C69C6D" stroke="#C69C6D" stroke-width="0.5" stroke-miterlimit="10"/>
<path d="M51.2189 27.1378L14.2218 26.6792C11.4606 26.645 9.19443 28.8557 9.16021 31.6169L8.87519 54.6151C8.84096 57.3763 11.0516 59.6425 13.8128 59.6767L50.81 60.1352C53.5712 60.1694 55.8374 57.9588 55.8716 55.1976L56.1566 32.1993C56.1908 29.4381 53.9802 27.172 51.2189 27.1378Z" fill="#C69C6D"/>
<path d="M12.067 26.2559C12.0747 27.8702 12.8605 29.382 14.1779 30.3149C19.5912 34.1482 25.0011 37.9765 30.414 41.8093C32.2037 43.0766 34.6104 43.0302 36.3492 41.6937C41.446 37.7763 46.5398 33.8543 51.6371 29.9376C52.7167 29.108 53.2888 27.7778 53.148 26.4235C53.0269 25.2581 52.0662 24.3596 50.8952 24.3166C38.9906 23.8795 27.0797 23.441 15.1748 23.0038C13.4709 22.9412 12.0578 24.3095 12.0659 26.0144C12.0663 26.0949 12.0666 26.1754 12.067 26.2559Z" fill="white" stroke="#C69C6D" stroke-miterlimit="10"/>
<path d="M9.63225 58.7859C16.8388 54.4211 24.0379 50.0544 31.2427 45.6892C32.9778 44.638 35.1763 44.7397 36.8068 45.9468C42.8505 50.4213 48.8928 54.9011 54.937 59.3738" stroke="white" stroke-miterlimit="10"/>
<path d="M17.9364 25.7985C21.3317 25.8996 24.7344 26.0128 28.1296 26.1139L17.9364 25.7985Z" fill="white"/>
<path d="M17.9364 25.7985C21.3317 25.8996 24.7344 26.0128 28.1296 26.1139" stroke="#C69C6D" stroke-miterlimit="10"/>
<path d="M18.0743 27.4634C21.4703 27.5336 24.8739 27.6158 28.2699 27.6861L18.0743 27.4634Z" fill="white"/>
<path d="M18.0743 27.4634C21.4703 27.5336 24.8739 27.6158 28.2699 27.6861" stroke="#C69C6D" stroke-miterlimit="10"/>
<path d="M19.9895 31.9186C29.9351 32.0719 39.8734 32.2129 49.819 32.3662L19.9895 31.9186Z" fill="white"/>
<path d="M19.9895 31.9186C29.9351 32.0719 39.8734 32.2129 49.819 32.3662" stroke="#C69C6D" stroke-width="0.5" stroke-miterlimit="10"/>
<path d="M20.4592 34.1048C30.4048 34.258 40.3432 34.3991 50.2887 34.5523L20.4592 34.1048Z" fill="white"/>
<path d="M20.4592 34.1048C30.4048 34.258 40.3432 34.3991 50.2887 34.5523" stroke="#C69C6D" stroke-width="0.5" stroke-miterlimit="10"/>
<path d="M19.9607 36.0416C29.9063 36.1948 39.8446 36.3359 49.7902 36.4892L19.9607 36.0416Z" fill="white"/>
<path d="M19.9607 36.0416C29.9063 36.1948 39.8446 36.3359 49.7902 36.4892" stroke="#C69C6D" stroke-width="0.5" stroke-miterlimit="10"/>
<path d="M15.3399 37.9502C22.5353 38.0773 29.7281 38.2141 36.9234 38.3411L15.3399 37.9502Z" fill="white"/>
<path d="M15.3399 37.9502C22.5353 38.0773 29.7281 38.2141 36.9234 38.3411" stroke="#C69C6D" stroke-width="0.5" stroke-miterlimit="10"/>
</svg>
