<?xml version="1.0" encoding="UTF-8"?><svg id="Layer_1" xmlns="http://www.w3.org/2000/svg" width="55" height="55" viewBox="0 0 55 55"><defs><style>.cls-1,.cls-2,.cls-3,.cls-4{stroke:#c69c6d;}.cls-1,.cls-2,.cls-3,.cls-4,.cls-5{stroke-miterlimit:10;}.cls-1,.cls-2,.cls-5{stroke-width:.8px;}.cls-1,.cls-3,.cls-5{fill:none;}.cls-2,.cls-6{fill:#fff;}.cls-7,.cls-4{fill:#c69c6d;}.cls-7,.cls-6{stroke-width:0px;}.cls-3,.cls-4{stroke-width:.4px;}.cls-5{stroke:#fff;}</style></defs><path class="cls-4" d="M24.26,2.55c1.5-1.27,3.69-1.27,5.19,0,3.75,3.17,7.51,6.33,11.26,9.5,2.88,2.43,1.14,7.13-2.62,7.1-7.43-.05-14.86-.1-22.29-.15-3.74-.03-5.42-4.68-2.57-7.1,3.68-3.11,7.35-6.23,11.03-9.34Z"/><path class="cls-7" d="M41.82,15.02l-29.78-.37c-2.22-.03-4.05,1.75-4.07,3.97l-.23,18.51c-.03,2.22,1.75,4.05,3.97,4.07l29.78.37c2.22.03,4.05-1.75,4.07-3.97l.23-18.51c.03-2.22-1.75-4.05-3.97-4.07Z"/><path class="cls-2" d="M10.31,14.31c0,1.3.64,2.52,1.7,3.27,4.36,3.09,8.71,6.17,13.07,9.25,1.44,1.02,3.38.98,4.78-.09,4.1-3.15,8.2-6.31,12.3-9.46.87-.67,1.33-1.74,1.22-2.83-.1-.94-.87-1.66-1.81-1.7-9.58-.35-19.17-.7-28.75-1.06-1.37-.05-2.51,1.05-2.5,2.42,0,.06,0,.13,0,.19Z"/><path class="cls-5" d="M8.35,40.49c5.8-3.51,11.59-7.03,17.39-10.54,1.4-.85,3.17-.76,4.48.21,4.86,3.6,9.73,7.21,14.59,10.81"/><path class="cls-6" d="M15.04,13.94c2.73.08,5.47.17,8.2.25l-8.2-.25Z"/><path class="cls-1" d="M15.04,13.94c2.73.08,5.47.17,8.2.25"/><path class="cls-6" d="M15.15,15.28c2.73.06,5.47.12,8.21.18l-8.21-.18Z"/><path class="cls-1" d="M15.15,15.28c2.73.06,5.47.12,8.21.18"/><path class="cls-6" d="M16.69,18.87c8,.12,16,.24,24.01.36l-24.01-.36Z"/><path class="cls-3" d="M16.69,18.87c8,.12,16,.24,24.01.36"/><path class="cls-6" d="M17.07,20.63c8,.12,16,.24,24.01.36l-24.01-.36Z"/><path class="cls-3" d="M17.07,20.63c8,.12,16,.24,24.01.36"/><path class="cls-6" d="M16.66,22.19c8,.12,16,.24,24.01.36l-24.01-.36Z"/><path class="cls-3" d="M16.66,22.19c8,.12,16,.24,24.01.36"/><path class="cls-6" d="M12.95,23.72c5.79.1,11.58.21,17.37.31l-17.37-.31Z"/><path class="cls-3" d="M12.95,23.72c5.79.1,11.58.21,17.37.31"/></svg>