<svg width="130" height="130" viewBox="0 0 130 130" fill="none" xmlns="http://www.w3.org/2000/svg">
<path d="M57.3584 19.2754C59.2196 17.6998 61.9459 17.697 63.8104 19.2686C76.4183 29.8963 89.0237 40.5343 101.631 51.1654C105.208 54.182 103.053 60.0214 98.3736 59.9895C73.4144 59.8191 48.466 59.6424 23.5067 59.4721C18.8659 59.4405 16.7672 53.6525 20.3088 50.6534C32.6599 40.1944 45.004 29.7335 57.3584 19.2754Z" fill="#C69C6D" stroke="#C69C6D" stroke-width="0.5" stroke-miterlimit="10"/>
<path d="M99.4063 50.4518L22.1266 49.4941C19.3654 49.4599 17.0992 51.6705 17.065 54.4317L16.4294 105.714C16.3952 108.475 18.6059 110.741 21.3671 110.775L98.6469 111.733C101.408 111.767 103.674 109.556 103.708 106.795L104.344 55.5134C104.378 52.7522 102.168 50.4861 99.4063 50.4518Z" fill="#C69C6D"/>
<path d="M22.4203 50.9659C22.4278 52.5802 23.2135 54.0919 24.5309 55.0249C36.0448 63.179 47.5498 71.3196 59.0632 79.473C60.8528 80.7404 63.2595 80.6939 64.9985 79.3578C75.6374 71.1832 86.2682 62.9962 96.9075 54.8222C98.2848 53.764 99.0147 52.067 98.8351 50.3395L98.5805 47.8908C98.4259 46.404 97.2004 45.2579 95.7066 45.203C72.3104 44.3441 48.9008 43.482 25.5044 42.6231C23.8006 42.5605 22.3873 43.9287 22.3952 45.6337C22.4035 47.4115 22.4121 49.1877 22.4203 50.9659Z" fill="white" stroke="#C69C6D" stroke-miterlimit="10"/>
<path d="M17.8886 109.174C32.092 100.571 46.2796 91.9648 60.4809 83.3619C62.2161 82.3107 64.4145 82.4125 66.0452 83.6195C78.0397 92.4978 90.0309 101.389 102.026 110.266" stroke="white" stroke-miterlimit="10"/>
<path d="M33.3101 47.9115C39.6155 48.0993 45.9349 48.3095 52.2403 48.4974L33.3101 47.9115Z" fill="white"/>
<path d="M33.3101 47.9115C39.6155 48.0993 45.9349 48.3095 52.2403 48.4974" stroke="#C69C6D" stroke-miterlimit="10"/>
<path d="M33.5667 51.0034C39.8736 51.1339 46.1945 51.2866 52.5014 51.4171L33.5667 51.0034Z" fill="white"/>
<path d="M33.5667 51.0034C39.8736 51.1339 46.1945 51.2866 52.5014 51.4171" stroke="#C69C6D" stroke-miterlimit="10"/>
<path d="M37.1227 59.2774C55.5931 59.562 74.0501 59.824 92.5204 60.1086L37.1227 59.2774Z" fill="white"/>
<path d="M37.1227 59.2774C55.5931 59.562 74.0501 59.824 92.5204 60.1086" stroke="#C69C6D" stroke-width="0.5" stroke-miterlimit="10"/>
<path d="M37.9958 63.3374C56.4661 63.622 74.9231 63.884 93.3934 64.1686L37.9958 63.3374Z" fill="white"/>
<path d="M37.9958 63.3374C56.4661 63.622 74.9231 63.884 93.3934 64.1686" stroke="#C69C6D" stroke-width="0.5" stroke-miterlimit="10"/>
<path d="M37.07 66.9344C55.5403 67.219 73.9973 67.481 92.4677 67.7656L37.07 66.9344Z" fill="white"/>
<path d="M37.07 66.9344C55.5403 67.219 73.9973 67.481 92.4677 67.7656" stroke="#C69C6D" stroke-width="0.5" stroke-miterlimit="10"/>
<path d="M28.4878 70.479C41.8505 70.715 55.2087 70.9689 68.5714 71.2049L28.4878 70.479Z" fill="white"/>
<path d="M28.4878 70.479C41.8505 70.715 55.2087 70.9689 68.5714 71.2049" stroke="#C69C6D" stroke-width="0.5" stroke-miterlimit="10"/>
</svg>
