<svg width="62" height="62" viewBox="0 0 62 62" fill="none" xmlns="http://www.w3.org/2000/svg">
<path d="M2.19653 54.5654V6.54785C2.19653 5.39012 2.65935 4.2798 3.48317 3.46116C4.30699 2.64252 5.42433 2.18262 6.58939 2.18262H54.9108C56.0759 2.18262 57.1932 2.64252 58.017 3.46116C58.8409 4.2798 59.3037 5.39012 59.3037 6.54785V54.5654C59.3037 55.7231 58.8409 56.8334 58.017 57.652C57.1932 58.4707 56.0759 58.9306 54.9108 58.9306H41.7322V38.2394H44.8512C45.5619 38.2394 46.2434 37.9589 46.746 37.4595C47.2485 36.9601 47.5308 36.2828 47.5308 35.5766V32.2154C47.5297 31.5095 47.247 30.8329 46.7447 30.3338C46.2424 29.8347 45.5615 29.5538 44.8512 29.5526H41.908V25.4493C41.908 21.7825 43.5772 21.7825 45.2465 21.7825H47.399C47.7526 21.797 48.105 21.7341 48.4314 21.5983C48.7578 21.4625 49.0502 21.2572 49.288 20.9968C49.5433 20.7552 49.7453 20.4637 49.8814 20.1406C50.0175 19.8176 50.0847 19.4699 50.0787 19.1197V15.8894C50.0916 15.5337 50.0335 15.1789 49.9078 14.8456C49.7821 14.5122 49.5912 14.2069 49.3462 13.9472C49.1012 13.6875 48.8069 13.4786 48.4802 13.3324C48.1536 13.1863 47.801 13.1058 47.443 13.0957H42.3912C40.9171 13.0406 39.4486 13.3042 38.0871 13.8681C36.7256 14.4321 35.5035 15.2831 34.5052 16.3622C33.507 17.4413 32.7564 18.723 32.3052 20.1185C31.8541 21.5141 31.7132 22.9903 31.8922 24.4453V29.5526H29.0808C28.7252 29.5468 28.3721 29.6114 28.0419 29.7426C27.7117 29.8738 27.4111 30.0691 27.1576 30.3169C26.9041 30.5648 26.7027 30.8603 26.5653 31.1862C26.4279 31.5121 26.3572 31.862 26.3572 32.2154V35.5766C26.3572 35.93 26.4279 36.2799 26.5653 36.6058C26.7027 36.9318 26.9041 37.2273 27.1576 37.4751C27.4111 37.7229 27.7117 37.9182 28.0419 38.0494C28.3721 38.1806 28.7252 38.2452 29.0808 38.2394H31.8922V58.9306H6.58939C5.42433 58.9306 4.30699 58.4707 3.48317 57.652C2.65935 56.8334 2.19653 55.7231 2.19653 54.5654Z" stroke="#A67153" stroke-width="3" stroke-linecap="round" stroke-linejoin="round"/>
</svg>
