<svg width="31" height="31" viewBox="0 0 31 31" fill="none" xmlns="http://www.w3.org/2000/svg">
<g clip-path="url(#clip0_78_4996)">
<path d="M1.10718 27.6786V3.32143C1.10718 2.73416 1.34047 2.17095 1.75573 1.75569C2.17099 1.34043 2.7342 1.10714 3.32146 1.10714H27.6786C28.2659 1.10714 28.8291 1.34043 29.2443 1.75569C29.6596 2.17095 29.8929 2.73416 29.8929 3.32143V27.6786C29.8929 28.2658 29.6596 28.8291 29.2443 29.2443C28.8291 29.6596 28.2659 29.8929 27.6786 29.8929H21.0358V19.3971H22.6079C22.9661 19.3971 23.3097 19.2548 23.563 19.0015C23.8163 18.7482 23.9586 18.4047 23.9586 18.0464V16.3414C23.958 15.9834 23.8155 15.6402 23.5623 15.387C23.3092 15.1338 22.9659 14.9913 22.6079 14.9907H21.1243V12.9093C21.1243 11.0493 21.9658 11.0493 22.8072 11.0493H23.8922C24.0704 11.0566 24.248 11.0247 24.4126 10.9559C24.5771 10.887 24.7245 10.7828 24.8443 10.6507C24.973 10.5282 25.0749 10.3803 25.1435 10.2164C25.2121 10.0526 25.2459 9.87622 25.2429 9.69857V8.06C25.2494 7.87955 25.2201 7.69959 25.1567 7.5305C25.0934 7.36141 24.9972 7.20654 24.8737 7.07481C24.7502 6.94307 24.6018 6.83708 24.4372 6.76295C24.2725 6.68882 24.0948 6.648 23.9143 6.64286H21.3679C20.6249 6.61492 19.8847 6.74861 19.1984 7.03469C18.5121 7.32077 17.8961 7.75241 17.3929 8.29981C16.8897 8.84721 16.5113 9.49732 16.2839 10.2052C16.0565 10.9131 15.9855 11.662 16.0758 12.4V14.9907H14.6586C14.4794 14.9878 14.3013 15.0205 14.1349 15.0871C13.9685 15.1537 13.8169 15.2527 13.6892 15.3784C13.5614 15.5041 13.4599 15.654 13.3906 15.8194C13.3214 15.9847 13.2857 16.1622 13.2857 16.3414V18.0464C13.2857 18.2257 13.3214 18.4032 13.3906 18.5685C13.4599 18.7338 13.5614 18.8837 13.6892 19.0094C13.8169 19.1352 13.9685 19.2342 14.1349 19.3008C14.3013 19.3673 14.4794 19.4001 14.6586 19.3971H16.0758V29.8929H3.32146C2.7342 29.8929 2.17099 29.6596 1.75573 29.2443C1.34047 28.8291 1.10718 28.2658 1.10718 27.6786Z" stroke="#A67153" stroke-width="1.5" stroke-linecap="round" stroke-linejoin="round"/>
</g>
<defs>
<clipPath id="clip0_78_4996">
<rect width="31" height="31" fill="white"/>
</clipPath>
</defs>
</svg>
