<svg width="62" height="62" viewBox="0 0 62 62" fill="none" xmlns="http://www.w3.org/2000/svg">
<path d="M51.6061 59.5853H9.22917C7.11296 59.5853 5.08343 58.7446 3.58704 57.2482C2.09066 55.7518 1.25 53.7223 1.25 51.6061V9.22917C1.25 7.11296 2.09066 5.08343 3.58704 3.58704C5.08343 2.09066 7.11296 1.25 9.22917 1.25H51.6061C53.7223 1.25 55.7518 2.09066 57.2482 3.58704C58.7446 5.08343 59.5853 7.11296 59.5853 9.22917V51.6061C59.5853 53.7223 58.7446 55.7518 57.2482 57.2482C55.7518 58.7446 53.7223 59.5853 51.6061 59.5853ZM9.22917 4.04167C7.85336 4.04167 6.5339 4.58821 5.56105 5.56105C4.58821 6.5339 4.04167 7.85336 4.04167 9.22917V51.6061C4.04167 52.9819 4.58821 54.3014 5.56105 55.2742C6.5339 56.247 7.85336 56.7936 9.22917 56.7936H51.6061C52.9819 56.7936 54.3014 56.247 55.2742 55.2742C56.247 54.3014 56.7936 52.9819 56.7936 51.6061V9.22917C56.7936 7.85336 56.247 6.5339 55.2742 5.56105C54.3014 4.58821 52.9819 4.04167 51.6061 4.04167H9.22917Z" fill="#A67153" stroke="#C59F73" stroke-width="0.5"/>
<path d="M30.4178 18.0676L30.4171 18.0676C27.9793 18.071 25.5971 18.7968 23.5715 20.1533C21.5458 21.5099 19.9677 23.4363 19.0363 25.6892C18.105 27.9422 17.8621 30.4206 18.3386 32.8115C18.815 35.2024 19.9893 37.3984 21.7132 39.1223C23.437 40.8461 25.6331 42.0204 28.0239 42.4969C30.4148 42.9733 32.8933 42.7305 35.1462 41.7991C37.3992 40.8678 39.3256 39.2896 40.6821 37.264C42.0386 35.2384 42.7644 32.8562 42.7678 30.4183V30.4176C42.7678 27.1422 41.4667 24.0009 39.1506 21.6849C36.8345 19.3688 33.6933 18.0676 30.4178 18.0676ZM30.4184 45.0395C27.5263 45.0364 24.7001 44.1759 22.2971 42.5668C19.894 40.9577 18.0219 38.6723 16.9175 35.9994C15.8131 33.3265 15.5259 30.3862 16.0923 27.5502C16.6587 24.7141 18.0531 22.1097 20.0995 20.066C22.1458 18.0224 24.7521 16.6313 27.5889 16.0686C30.4256 15.5059 33.3656 15.7969 36.037 16.9048C38.7084 18.0127 40.9914 19.8878 42.5974 22.293C44.2032 24.698 45.06 27.5251 45.0595 30.417C45.0544 34.2969 43.5096 38.0161 40.7643 40.7578C38.0191 43.4994 34.2981 45.0394 30.4184 45.0395Z" fill="#A67153" stroke="#A67153"/>
<path d="M50.5729 13.3997C50.5729 15.0779 49.2125 16.4383 47.5344 16.4383C45.8563 16.4383 44.4958 15.0779 44.4958 13.3997C44.4958 11.7216 45.8563 10.3612 47.5344 10.3612C49.2125 10.3612 50.5729 11.7216 50.5729 13.3997Z" fill="#A67153" stroke="#A67153"/>
</svg>
