<svg width="31" height="31" viewBox="0 0 31 31" fill="none" xmlns="http://www.w3.org/2000/svg">
<g clip-path="url(#clip0_78_4991)">
<path d="M26.0129 30.1017H4.65219C3.61887 30.1017 2.62756 29.6887 1.89642 28.9529C1.16522 28.2171 0.75415 27.2188 0.75415 26.1775V4.68154C0.75415 3.64025 1.16522 2.64192 1.89642 1.90609C2.62756 1.17032 3.61887 0.757256 4.65219 0.757256H26.0129C27.0462 0.757256 28.0375 1.17032 28.7687 1.90609C29.4999 2.64192 29.9109 3.64025 29.9109 4.68154V26.1775C29.9109 27.2188 29.4999 28.2171 28.7687 28.9529C28.0375 29.6887 27.0462 30.1017 26.0129 30.1017ZM4.65219 1.92697C3.92529 1.92697 3.2285 2.21757 2.71499 2.73433C2.20154 3.25103 1.91336 3.95149 1.91336 4.68154V26.1775C1.91336 26.9075 2.20154 27.608 2.71499 28.1247C3.2285 28.6414 3.92529 28.932 4.65219 28.932H26.0129C26.7398 28.932 27.4366 28.6414 27.9501 28.1247C28.4636 27.608 28.7517 26.9075 28.7517 26.1775V4.68154C28.7517 3.95149 28.4636 3.25103 27.9501 2.73433C27.4366 2.21757 26.7398 1.92697 26.0129 1.92697H4.65219Z" fill="#A67153" stroke="#A67153" stroke-width="0.5"/>
<path d="M15.3326 8.91852L15.3319 8.91852C14.0533 8.92032 12.8042 9.30339 11.7424 10.019C10.6806 10.7346 9.8538 11.7504 9.36599 12.9379C8.87819 14.1253 8.75107 15.4314 9.00056 16.6914C9.25006 17.9513 9.86508 19.109 10.7684 20.0181C11.6718 20.9272 12.823 21.5468 14.0769 21.7983C15.3307 22.0497 16.6304 21.9215 17.8118 21.4301C18.9931 20.9387 20.0026 20.1062 20.7133 19.0382C21.424 17.9704 21.804 16.7148 21.8058 15.4302V15.4295C21.8058 13.7037 21.1245 12.0479 19.9109 10.8267C18.6972 9.60527 17.0504 8.91852 15.3326 8.91852ZM15.3331 22.6002C13.9251 22.5986 12.5489 22.177 11.3784 21.3883C10.2078 20.5996 9.2955 19.479 8.75714 18.1678C8.21877 16.8566 8.07874 15.4141 8.35487 14.0226C8.63099 12.6312 9.31078 11.3538 10.3078 10.3518C11.3048 9.34981 12.5742 8.66813 13.9554 8.39243C15.3366 8.11674 16.7681 8.2593 18.069 8.80222C19.3699 9.34516 20.4822 10.2643 21.2648 11.4438C22.0474 12.6233 22.4652 14.0101 22.465 15.4289C22.4625 17.3327 21.7092 19.1571 20.3715 20.5014C19.0341 21.8456 17.2219 22.6 15.3331 22.6002Z" fill="#A67153" stroke="#A67153"/>
<path d="M25.2441 6.79708C25.2441 7.51523 24.6664 8.09202 23.9604 8.09202C23.2544 8.09202 22.6768 7.51523 22.6768 6.79708C22.6768 6.07892 23.2544 5.50213 23.9604 5.50213C24.6664 5.50213 25.2441 6.07892 25.2441 6.79708Z" fill="#A67153" stroke="#A67153"/>
</g>
<defs>
<clipPath id="clip0_78_4991">
<rect width="31" height="31" fill="white"/>
</clipPath>
</defs>
</svg>
