<?xml version="1.0" encoding="UTF-8"?>
<svg id="kompas_s" xmlns="http://www.w3.org/2000/svg" xmlns:xlink="http://www.w3.org/1999/xlink" version="1.1" viewBox="0 0 55 55">
  <defs>
    <style>
      .cls-1 {
        clip-path: url(#clippath);
      }

      .cls-2 {
        stroke-width: 0px;
      }

      .cls-2, .cls-3, .cls-4, .cls-5 {
        fill: none;
      }

      .cls-6 {
        stroke-width: .4px;
      }

      .cls-6, .cls-3, .cls-7, .cls-8, .cls-9, .cls-10, .cls-5, .cls-11, .cls-12 {
        stroke: #c69c6d;
      }

      .cls-6, .cls-7, .cls-8, .cls-9, .cls-10, .cls-4, .cls-11, .cls-12 {
        stroke-miterlimit: 10;
      }

      .cls-6, .cls-9 {
        fill: #fffaf7;
      }

      .cls-3 {
        stroke-miterlimit: 4;
        stroke-width: .2px;
      }

      .cls-7 {
        fill: #c59f73;
      }

      .cls-7, .cls-9, .cls-10, .cls-12 {
        stroke-width: .8px;
      }

      .cls-8, .cls-5 {
        stroke-width: .2px;
      }

      .cls-8, .cls-11, .cls-12 {
        fill: #c69c6d;
      }

      .cls-10 {
        fill: #fff;
      }

      .cls-4 {
        stroke: #fff;
        stroke-width: .9px;
      }

      .cls-11 {
        stroke-width: .3px;
      }
    </style>
    <clipPath id="clippath">
      <rect class="cls-2" x="-1.8" y=".4" width="54.3" height="54.3"/>
    </clipPath>
  </defs>
  <g class="cls-1">
    <g>
      <path class="cls-7" d="M26.4,47c11.5,0,20.9-9.3,20.9-20.9S37.9,5.3,26.4,5.3,5.5,14.6,5.5,26.1s9.3,20.9,20.9,20.9Z"/>
      <path class="cls-6" d="M23.6,23.7c-.3.4-.9.4-1.2,0-.6-.8-1.1-1.6-1.7-2.3-.5-.7.3-1.6,1-1.1.8.5,1.6,1,2.5,1.5.4.2.5.8.2,1.2l-.8.9Z"/>
      <path class="cls-6" d="M28.9,23c-.4-.3-.3-.9,0-1.2.8-.5,1.6-1.1,2.4-1.6.7-.5,1.5.4,1.1,1.1-.5.8-1,1.6-1.6,2.4-.3.4-.8.5-1.2.1l-.8-.8Z"/>
      <path class="cls-6" d="M23.2,28.6c-.3-.4-.9-.3-1.2,0-.6.8-1.1,1.6-1.7,2.3-.5.7.3,1.6,1,1.1.8-.5,1.6-1,2.4-1.5.4-.2.5-.8.2-1.2l-.8-.9Z"/>
      <path class="cls-6" d="M29.9,28.6c.3-.4.9-.3,1.2,0,.6.8,1.1,1.6,1.7,2.3.5.7-.3,1.6-1,1.1-.8-.5-1.6-1-2.4-1.5-.4-.2-.5-.8-.2-1.2l.8-.9Z"/>
      <path class="cls-11" d="M26.6,27.5c.8,0,1.5-.7,1.5-1.5s-.7-1.5-1.5-1.5-1.5.7-1.5,1.5.7,1.5,1.5,1.5Z"/>
      <path class="cls-8" d="M25.7,4.3V1.1h.4l1,1.6c.2.4.4.7.6,1h0c0-.4,0-.8,0-1.3v-1.3h.4v3.1h-.4l-1-1.6c-.2-.3-.4-.7-.6-1h0c0,.4,0,.8,0,1.3v1.3h-.4Z"/>
      <path class="cls-8" d="M25.5,51.6c.2.1.4.2.7.2.4,0,.7-.2.7-.5s-.2-.5-.6-.6c-.5-.2-.8-.4-.8-.9s.4-.9,1-.9.6,0,.7.2v.3c-.2,0-.4-.1-.7-.1-.4,0-.6.3-.6.5s.2.4.6.6c.5.2.8.5.8.9s-.4.9-1.1.9-.6,0-.8-.2v-.3Z"/>
      <path class="cls-8" d="M1.3,27.3l-.8-3.1h.4l.4,1.6c0,.4.2.8.2,1.1h0c0-.3.1-.7.3-1.1l.4-1.6h.4l.4,1.6c0,.4.2.7.2,1.1h0c0-.3.2-.7.2-1.1l.4-1.6h.4l-.9,3.1h-.4l-.4-1.6c-.1-.4-.2-.7-.2-1h0c0,.3-.1.6-.2,1l-.4,1.6h-.4,0Z"/>
      <path class="cls-8" d="M50.5,26.6h-1.2v1.1h1.4v.3h-1.8v-3.1h1.7v.3h-1.3v1h1.2v.3h0Z"/>
      <path class="cls-9" d="M23.9,24.8c.6-3.6,1.3-8.2,2-12.5.2-1.3,1.9-1.3,2,0,.5,4.3.9,9,1.4,12.5h-5.4Z"/>
      <path class="cls-9" d="M23.9,29.1c.6,3.6,1.3,8.2,2,12.5.2,1.3,1.9,1.3,2,0,.5-4.3.9-9,1.4-12.5h-5.4Z"/>
      <path class="cls-9" d="M24,28.7c-3.6-.7-8.2-1.3-12.5-2-1.3-.2-1.3-1.9,0-2,4.3-.5,9-.9,12.5-1.4v5.4Z"/>
      <path class="cls-9" d="M29.3,28.7c3.6-.7,8.2-1.3,12.5-2,1.3-.2,1.3-1.9,0-2-4.3-.5-9-.9-12.5-1.4v5.4Z"/>
      <path class="cls-10" d="M26.6,29.9c2.1,0,3.9-1.7,3.9-3.9s-1.7-3.9-3.9-3.9-3.9,1.7-3.9,3.9,1.7,3.9,3.9,3.9Z"/>
      <path class="cls-12" d="M26.6,27.4c.8,0,1.5-.7,1.5-1.5s-.7-1.5-1.5-1.5-1.5.7-1.5,1.5.7,1.5,1.5,1.5Z"/>
      <line class="cls-5" x1="26.9" y1="11.1" x2="26.9" y2="22"/>
      <line class="cls-5" x1="26.9" y1="42.8" x2="26.9" y2="31.9"/>
      <line class="cls-5" x1="10.3" y1="25.6" x2="21.2" y2="25.6"/>
      <line class="cls-3" x1="43" y1="25.6" x2="32.2" y2="25.6"/>
      <path class="cls-4" d="M26.6,45.8c11,0,19.8-8.9,19.8-19.8S37.6,6.1,26.6,6.1,6.8,15,6.8,25.9s8.9,19.8,19.8,19.8Z"/>
    </g>
  </g>
</svg>