<?xml version="1.0" encoding="UTF-8"?><svg id="kompas_s" xmlns="http://www.w3.org/2000/svg" width="55" height="55" xmlns:xlink="http://www.w3.org/1999/xlink" viewBox="0 0 55 55"><defs><style>.cls-1{clip-path:url(#clippath);}.cls-2{stroke-width:0px;}.cls-2,.cls-3,.cls-4,.cls-5{fill:none;}.cls-6{stroke-width:.39px;}.cls-6,.cls-3,.cls-7,.cls-8,.cls-9,.cls-10,.cls-5,.cls-11,.cls-12{stroke:#c69c6d;}.cls-6,.cls-7,.cls-8,.cls-9,.cls-10,.cls-4,.cls-11,.cls-12{stroke-miterlimit:10;}.cls-6,.cls-9{fill:#fffaf7;}.cls-3{stroke-miterlimit:4;stroke-width:.23px;}.cls-7{fill:#c59f73;}.cls-7,.cls-9,.cls-10,.cls-12{stroke-width:.78px;}.cls-8,.cls-5{stroke-width:.23px;}.cls-8,.cls-11,.cls-12{fill:#c69c6d;}.cls-10{fill:#fff;}.cls-4{stroke:#fff;stroke-width:.86px;}.cls-11{stroke-width:.3px;}</style><clipPath id="clippath"><rect class="cls-2" x="-1.83" y=".35" width="54.29" height="54.29"/></clipPath></defs><g class="cls-1"><path class="cls-7" d="M26.4,47.03c11.53,0,20.88-9.35,20.88-20.88S37.93,5.26,26.4,5.26,5.51,14.61,5.51,26.14s9.35,20.88,20.88,20.88Z"/><path class="cls-6" d="M23.6,23.68c-.33.38-.92.35-1.21-.05-.57-.78-1.13-1.56-1.7-2.34-.5-.68.3-1.55,1.03-1.12.82.49,1.63.98,2.45,1.47.41.25.5.81.19,1.17l-.75.87Z"/><path class="cls-6" d="M28.85,22.95c-.37-.34-.32-.93.1-1.21.8-.54,1.6-1.08,2.4-1.62.7-.47,1.54.36,1.08,1.06-.52.8-1.04,1.6-1.56,2.4-.26.4-.83.47-1.18.15l-.84-.78Z"/><path class="cls-6" d="M23.18,28.55c-.33-.38-.92-.35-1.21.06-.56.78-1.13,1.57-1.69,2.35-.49.68.31,1.55,1.03,1.12.82-.49,1.63-.99,2.45-1.48.41-.25.5-.81.18-1.17l-.76-.87Z"/><path class="cls-6" d="M29.85,28.55c.33-.38.92-.35,1.21.06.56.78,1.13,1.57,1.69,2.35.49.68-.31,1.55-1.03,1.12-.82-.49-1.63-.99-2.45-1.48-.41-.25-.5-.81-.18-1.17l.76-.87Z"/><path class="cls-11" d="M26.6,27.49c.83,0,1.5-.67,1.5-1.5s-.67-1.5-1.5-1.5-1.5.67-1.5,1.5.67,1.5,1.5,1.5Z"/><path class="cls-8" d="M25.67,4.27V1.14h.44l1.01,1.58c.23.36.41.7.57,1.02h0c-.04-.43-.05-.81-.05-1.3v-1.31h.38v3.13h-.41l-.99-1.59c-.22-.35-.43-.71-.59-1.05h-.02c.02.4.03.78.03,1.3v1.34h-.38Z"/><path class="cls-8" d="M25.54,51.63c.18.11.45.2.73.2.41,0,.66-.22.66-.54,0-.29-.17-.46-.59-.62-.51-.18-.83-.45-.83-.89,0-.49.4-.85,1.02-.85.32,0,.55.08.69.16l-.11.33c-.1-.05-.31-.15-.6-.15-.43,0-.59.26-.59.47,0,.29.19.43.62.6.53.2.8.46.8.92s-.36.9-1.1.9c-.3,0-.64-.09-.8-.2l.1-.34Z"/><path class="cls-8" d="M1.3,27.31l-.8-3.13h.43l.37,1.58c.09.39.18.78.23,1.09h0c.05-.31.15-.68.26-1.09l.42-1.58h.43l.38,1.59c.09.37.17.74.22,1.08h0c.06-.34.16-.69.25-1.09l.41-1.58h.41l-.89,3.13h-.43l-.4-1.63c-.1-.4-.16-.71-.2-1.02h0c-.05.31-.12.62-.24,1.02l-.45,1.63h-.43.02Z"/><path class="cls-8" d="M50.49,26.61h-1.22v1.13h1.36v.34h-1.76v-3.13h1.69v.34h-1.29v.99h1.22v.33h0Z"/><path class="cls-9" d="M23.89,24.83c.65-3.56,1.31-8.19,1.96-12.55.2-1.31,1.89-1.27,2.03.04.48,4.35.95,8.96,1.43,12.51h-5.43Z"/><path class="cls-9" d="M23.89,29.07c.65,3.56,1.31,8.19,1.96,12.55.2,1.31,1.89,1.27,2.03-.04.48-4.35.95-8.96,1.43-12.51h-5.43Z"/><path class="cls-9" d="M24.04,28.68c-3.56-.65-8.19-1.32-12.55-1.98-1.31-.2-1.27-1.89.05-2.03,4.35-.47,8.96-.93,12.51-1.41v5.43Z"/><path class="cls-9" d="M29.33,28.68c3.56-.65,8.19-1.32,12.55-1.98,1.31-.2,1.27-1.89-.05-2.03-4.35-.47-8.96-.93-12.51-1.41v5.43Z"/><path class="cls-10" d="M26.6,29.87c2.14,0,3.88-1.74,3.88-3.88s-1.74-3.88-3.88-3.88-3.88,1.74-3.88,3.88,1.74,3.88,3.88,3.88Z"/><path class="cls-12" d="M26.6,27.4c.81,0,1.46-.65,1.46-1.46s-.65-1.46-1.46-1.46-1.46.65-1.46,1.46.65,1.46,1.46,1.46Z"/><line class="cls-5" x1="26.93" y1="11.11" x2="26.93" y2="21.97"/><line class="cls-5" x1="26.93" y1="42.79" x2="26.93" y2="31.93"/><line class="cls-5" x1="10.32" y1="25.62" x2="21.18" y2="25.63"/><line class="cls-3" x1="43.04" y1="25.62" x2="32.19" y2="25.63"/><path class="cls-4" d="M26.6,45.77c10.96,0,19.84-8.88,19.84-19.84S37.56,6.1,26.6,6.1,6.77,14.98,6.77,25.93s8.88,19.84,19.84,19.84Z"/></g></svg>