<svg width="70" height="70" viewBox="0 0 70 70" fill="none" xmlns="http://www.w3.org/2000/svg">
<g clip-path="url(#clip0_286_3622)">
<path d="M36.3899 60.1731C51.2591 60.1731 63.313 48.1192 63.313 33.25C63.313 18.3808 51.2591 6.3269 36.3899 6.3269C21.5207 6.3269 9.4668 18.3808 9.4668 33.25C9.4668 48.1192 21.5207 60.1731 36.3899 60.1731Z" fill="#C59F73" stroke="#C69C6D" stroke-miterlimit="10"/>
<path d="M32.786 30.0774C32.3635 30.5638 31.598 30.5296 31.2203 30.0077C30.4912 29.0002 29.7611 27.9928 29.031 26.9853C28.3922 26.1039 29.4216 24.9834 30.3544 25.5446C31.4077 26.1783 32.4618 26.812 33.5171 27.4457C34.0502 27.7658 34.1652 28.4897 33.7574 28.9592L32.786 30.0774Z" fill="#FFFAF7" stroke="#C69C6D" stroke-width="0.5" stroke-miterlimit="10"/>
<path d="M39.5553 29.1362C39.0836 28.6973 39.144 27.9335 39.6785 27.5738C40.7103 26.8796 41.7422 26.1844 42.774 25.4891C43.6767 24.8808 44.7613 25.9479 44.1686 26.861C43.4993 27.892 42.8299 28.9238 42.1605 29.9568C41.8223 30.4787 41.0949 30.5689 40.6397 30.1453L39.5553 29.1362Z" fill="#FFFAF7" stroke="#C69C6D" stroke-width="0.5" stroke-miterlimit="10"/>
<path d="M32.2494 36.3595C31.8259 35.874 31.0605 35.9099 30.6839 36.4327C29.9571 37.4417 29.2292 38.4508 28.5013 39.4598C27.8644 40.3427 28.8963 41.4609 29.8278 40.8977C30.8798 40.2616 31.9324 39.6256 32.9863 38.9896C33.5187 38.6683 33.6322 37.9442 33.2233 37.4756L32.2494 36.3595Z" fill="#FFFAF7" stroke="#C69C6D" stroke-width="0.5" stroke-miterlimit="10"/>
<path d="M40.8506 36.3595C41.2742 35.874 42.0396 35.9099 42.4162 36.4327C43.143 37.4417 43.8709 38.4508 44.5988 39.4598C45.2357 40.3427 44.2038 41.4609 43.2723 40.8977C42.2203 40.2616 41.1677 39.6256 40.1138 38.9896C39.5814 38.6683 39.4679 37.9442 39.8768 37.4756L40.8506 36.3595Z" fill="#FFFAF7" stroke="#C69C6D" stroke-width="0.5" stroke-miterlimit="10"/>
<path d="M36.6575 34.9877C37.7234 34.9877 38.5875 34.1236 38.5875 33.0577C38.5875 31.9918 37.7234 31.1277 36.6575 31.1277C35.5916 31.1277 34.7275 31.9918 34.7275 33.0577C34.7275 34.1236 35.5916 34.9877 36.6575 34.9877Z" fill="#C69C6D" stroke="#C69C6D" stroke-width="0.39" stroke-miterlimit="10"/>
<path d="M35.4595 5.05V1.01H36.0295L37.3295 3.05C37.6295 3.52 37.8595 3.95 38.0595 4.36H38.0695C38.0195 3.81 38.0095 3.32 38.0095 2.69V1H38.4995V5.04H37.9695L36.6895 2.99C36.4095 2.54 36.1395 2.08 35.9295 1.64H35.9095C35.9395 2.16 35.9495 2.64 35.9495 3.31V5.04H35.4595V5.05Z" fill="#C69C6D" stroke="#C69C6D" stroke-width="0.3" stroke-miterlimit="10"/>
<path d="M35.2902 66.11C35.5202 66.25 35.8702 66.37 36.2302 66.37C36.7602 66.37 37.0802 66.09 37.0802 65.68C37.0802 65.3 36.8602 65.09 36.3202 64.88C35.6602 64.65 35.2502 64.3 35.2502 63.73C35.2502 63.1 35.7702 62.63 36.5602 62.63C36.9702 62.63 37.2702 62.73 37.4502 62.83L37.3102 63.26C37.1802 63.19 36.9102 63.07 36.5402 63.07C35.9902 63.07 35.7802 63.4 35.7802 63.68C35.7802 64.06 36.0302 64.24 36.5802 64.46C37.2602 64.72 37.6102 65.05 37.6102 65.65C37.6102 66.27 37.1502 66.81 36.1902 66.81C35.8002 66.81 35.3702 66.7 35.1602 66.55L35.2902 66.11Z" fill="#C69C6D" stroke="#C69C6D" stroke-width="0.3" stroke-miterlimit="10"/>
<path d="M4.03 34.75L3 30.71H3.55L4.03 32.75C4.15 33.25 4.26 33.76 4.33 34.15H4.34C4.41 33.75 4.53 33.27 4.67 32.75L5.21 30.71H5.76L6.25 32.76C6.36 33.24 6.47 33.72 6.53 34.15H6.54C6.62 33.71 6.74 33.26 6.86 32.75L7.39 30.71H7.92L6.77 34.75H6.22L5.71 32.65C5.58 32.13 5.5 31.74 5.45 31.33H5.44C5.37 31.73 5.28 32.13 5.13 32.65L4.55 34.75H4H4.03Z" fill="#C69C6D" stroke="#C69C6D" stroke-width="0.3" stroke-miterlimit="10"/>
<path d="M67.4601 33.85H65.8901V35.31H67.6401V35.75H65.3701V31.71H67.5501V32.15H65.8901V33.43H67.4601V33.86V33.85Z" fill="#C69C6D" stroke="#C69C6D" stroke-width="0.3" stroke-miterlimit="10"/>
<path d="M33.1577 31.5577C33.9907 26.9667 34.8434 20.9987 35.6911 15.3787C35.9457 13.6904 38.1267 13.7365 38.3122 15.4338C38.9248 21.0377 39.5334 26.9817 40.1577 31.5577H33.1577Z" fill="#FFFAF7" stroke="#C69C6D" stroke-miterlimit="10"/>
<path d="M33.1592 37.0192C33.9922 41.6102 34.8449 47.5782 35.6925 53.1982C35.9472 54.8865 38.1281 54.8404 38.3137 53.1431C38.9262 47.5392 39.5349 41.5952 40.1592 37.0192H33.1592Z" fill="#FFFAF7" stroke="#C69C6D" stroke-miterlimit="10"/>
<path d="M33.3515 36.5208C28.7618 35.6806 22.7952 34.8186 17.1765 33.962C15.4887 33.7047 15.5382 31.5239 17.2358 31.341C22.8407 30.7373 28.7856 30.1379 33.3625 29.5208L33.3515 36.5208Z" fill="#FFFAF7" stroke="#C69C6D" stroke-miterlimit="10"/>
<path d="M40.1704 36.5208C44.7601 35.6806 50.7267 34.8186 56.3454 33.962C58.0333 33.7047 57.9837 31.5239 56.2862 31.341C50.6813 30.7373 44.7364 30.1379 40.1594 29.5208L40.1704 36.5208Z" fill="#FFFAF7" stroke="#C69C6D" stroke-miterlimit="10"/>
<path d="M36.6572 38.0577C39.4187 38.0577 41.6572 35.8191 41.6572 33.0577C41.6572 30.2963 39.4187 28.0577 36.6572 28.0577C33.8958 28.0577 31.6572 30.2963 31.6572 33.0577C31.6572 35.8191 33.8958 38.0577 36.6572 38.0577Z" fill="white" stroke="#C69C6D" stroke-miterlimit="10"/>
<path d="M36.659 34.8654C37.6999 34.8654 38.5436 34.0216 38.5436 32.9807C38.5436 31.9399 37.6999 31.0961 36.659 31.0961C35.6182 31.0961 34.7744 31.9399 34.7744 32.9807C34.7744 34.0216 35.6182 34.8654 36.659 34.8654Z" fill="#C69C6D" stroke="#C69C6D" stroke-miterlimit="10"/>
<line x1="37.0782" y1="13.8654" x2="37.0782" y2="27.8654" stroke="#C69C6D" stroke-width="0.3"/>
<line y1="-0.15" x2="14" y2="-0.15" transform="matrix(3.31004e-09 -1 -1 -9.59716e-10 36.9297 54.7115)" stroke="#C69C6D" stroke-width="0.3"/>
<line x1="15.6658" y1="32.5722" x2="29.6657" y2="32.5942" stroke="#C69C6D" stroke-width="0.3"/>
<line y1="-0.15" x2="14" y2="-0.15" transform="matrix(-0.999999 0.00157213 0.00157213 0.999999 57.8564 32.7222)" stroke="#C69C6D" stroke-width="0.3"/>
<path d="M36.659 58.5577C50.7847 58.5577 62.2359 47.1065 62.2359 32.9807C62.2359 18.855 50.7847 7.40382 36.659 7.40382C22.5332 7.40382 11.082 18.855 11.082 32.9807C11.082 47.1065 22.5332 58.5577 36.659 58.5577Z" stroke="white" stroke-width="1.11" stroke-miterlimit="10"/>
</g>
<defs>
<clipPath id="clip0_286_3622">
<rect width="70" height="70" fill="white"/>
</clipPath>
</defs>
</svg>
