<svg width="130" height="130" viewBox="0 0 130 130" fill="none" xmlns="http://www.w3.org/2000/svg">
<g clip-path="url(#clip0_196_30778)">
<path d="M62.0098 117.893C89.624 117.893 112.01 95.5071 112.01 67.8928C112.01 40.2786 89.624 17.8928 62.0098 17.8928C34.3955 17.8928 12.0098 40.2786 12.0098 67.8928C12.0098 95.5071 34.3955 117.893 62.0098 117.893Z" fill="#C59F73" stroke="#C69C6D" stroke-miterlimit="10"/>
<path d="M54.608 62.8168C54.1855 63.3031 53.42 63.2689 53.0425 62.7469C50.6586 59.4512 48.2676 56.1554 45.8805 52.8597C45.2419 51.9781 46.2721 50.8572 47.2047 51.4186C50.6493 53.4922 54.096 55.5658 57.5505 57.6394C58.0836 57.9594 58.1987 58.6833 57.7908 59.1528L54.608 62.8168Z" fill="#FFFAF7" stroke="#C69C6D" stroke-width="0.5" stroke-miterlimit="10"/>
<path d="M67.0969 59.5168C66.6252 59.0779 66.6856 58.3141 67.2202 57.9546C70.5955 55.6847 73.9711 53.4079 77.3465 51.1348C78.2494 50.5267 79.3344 51.5947 78.7415 52.5075C76.5513 55.8792 74.3611 59.253 72.1706 62.6345C71.8325 63.1565 71.1052 63.2467 70.6499 62.823L67.0969 59.5168Z" fill="#FFFAF7" stroke="#C69C6D" stroke-width="0.5" stroke-miterlimit="10"/>
<path d="M53.6096 72.8533C53.186 72.3679 52.4206 72.4038 52.0442 72.9266C49.6676 76.2276 47.2839 79.5286 44.904 82.8295C44.2674 83.7125 45.3 84.8312 46.2314 84.2677C49.6714 82.1866 53.1136 80.1054 56.5634 78.0242C57.0959 77.703 57.2093 76.9789 56.8005 76.5103L53.6096 72.8533Z" fill="#FFFAF7" stroke="#C69C6D" stroke-width="0.5" stroke-miterlimit="10"/>
<path d="M71.0047 72.8533C71.4283 72.3679 72.1936 72.4038 72.5701 72.9266C74.9467 76.2276 77.3304 79.5286 79.7103 82.8295C80.3469 83.7125 79.3142 84.8312 78.3829 84.2677C74.9429 82.1866 71.5007 80.1054 68.0508 78.0242C67.5184 77.703 67.4049 76.9789 67.8138 76.5103L71.0047 72.8533Z" fill="#FFFAF7" stroke="#C69C6D" stroke-width="0.5" stroke-miterlimit="10"/>
<path d="M62.5071 71.12C64.4867 71.12 66.0914 69.5152 66.0914 67.5357C66.0914 65.5562 64.4867 63.9514 62.5071 63.9514C60.5276 63.9514 58.9229 65.5562 58.9229 67.5357C58.9229 69.5152 60.5276 71.12 62.5071 71.12Z" fill="#C69C6D" stroke="#C69C6D" stroke-width="0.39" stroke-miterlimit="10"/>
<path d="M60.2822 15.5214V8.01857H61.3408L63.7551 11.8071C64.3122 12.68 64.7394 13.4786 65.1108 14.24H65.1294C65.0365 13.2186 65.0179 12.3086 65.0179 11.1386V8H65.9279V15.5029H64.9437L62.5665 11.6957C62.0465 10.86 61.5451 10.0057 61.1551 9.18857H61.1179C61.1737 10.1543 61.1922 11.0457 61.1922 12.29V15.5029H60.2822V15.5214Z" fill="#C69C6D" stroke="#C69C6D" stroke-width="0.3" stroke-miterlimit="10"/>
<path d="M59.967 128.919C60.3942 129.179 61.0442 129.401 61.7127 129.401C62.697 129.401 63.2913 128.881 63.2913 128.12C63.2913 127.414 62.8827 127.024 61.8799 126.634C60.6542 126.207 59.8927 125.557 59.8927 124.499C59.8927 123.329 60.8584 122.456 62.3256 122.456C63.087 122.456 63.6442 122.641 63.9784 122.827L63.7184 123.626C63.477 123.496 62.9756 123.273 62.2884 123.273C61.267 123.273 60.877 123.886 60.877 124.406C60.877 125.111 61.3413 125.446 62.3627 125.854C63.6256 126.337 64.2756 126.95 64.2756 128.064C64.2756 129.216 63.4213 130.219 61.6384 130.219C60.9142 130.219 60.1156 130.014 59.7256 129.736L59.967 128.919Z" fill="#C69C6D" stroke="#C69C6D" stroke-width="0.3" stroke-miterlimit="10"/>
<path d="M1.91286 70.6785L0 63.1757H1.02143L1.91286 66.9642C2.13571 67.8928 2.34 68.8399 2.47 69.5642H2.48857C2.61857 68.8214 2.84143 67.9299 3.10143 66.9642L4.10429 63.1757H5.12571L6.03571 66.9828C6.24 67.8742 6.44429 68.7657 6.55571 69.5642H6.57429C6.72286 68.7471 6.94571 67.9114 7.16857 66.9642L8.15286 63.1757H9.13714L7.00143 70.6785H5.98L5.03286 66.7785C4.79143 65.8128 4.64286 65.0885 4.55 64.3271H4.53143C4.40143 65.0699 4.23429 65.8128 3.95571 66.7785L2.87857 70.6785H1.85714H1.91286Z" fill="#C69C6D" stroke="#C69C6D" stroke-width="0.3" stroke-miterlimit="10"/>
<path d="M119.712 69.0071H116.796V71.7186H120.046V72.5357H115.83V65.0328H119.879V65.85H116.796V68.2271H119.712V69.0257V69.0071Z" fill="#C69C6D" stroke="#C69C6D" stroke-width="0.3" stroke-miterlimit="10"/>
<path d="M56.0068 64.75C57.9586 53.9934 59.9683 39.1667 61.9444 26.7021C62.2118 25.0158 64.4802 25.0646 64.6771 26.7606C66.1228 39.213 67.5417 54.0102 69.0068 64.75H56.0068Z" fill="#FFFAF7" stroke="#C69C6D" stroke-miterlimit="10"/>
<path d="M56.0098 74.8929C57.9615 85.6495 59.9713 100.476 61.9474 112.941C62.2147 114.627 64.4831 114.578 64.68 112.882C66.1257 100.43 67.5446 85.6326 69.0098 74.8929H56.0098Z" fill="#FFFAF7" stroke="#C69C6D" stroke-miterlimit="10"/>
<path d="M56.3668 73.9673C45.6133 71.9986 30.7898 69.9655 18.3284 67.9699C16.6425 67.6999 16.6949 65.4315 18.3911 65.2373C30.8458 63.8112 45.6452 62.4156 56.3873 60.9673L56.3668 73.9673Z" fill="#FFFAF7" stroke="#C69C6D" stroke-miterlimit="10"/>
<path d="M69.0306 73.9673C79.7841 71.9986 94.6076 69.9655 107.069 67.9699C108.755 67.6999 108.703 65.4315 107.006 65.2373C94.5516 63.8112 79.7522 62.4156 69.0102 60.9673L69.0306 73.9673Z" fill="#FFFAF7" stroke="#C69C6D" stroke-miterlimit="10"/>
<path d="M62.5064 76.8214C67.6348 76.8214 71.7921 72.6641 71.7921 67.5357C71.7921 62.4074 67.6348 58.25 62.5064 58.25C57.3781 58.25 53.2207 62.4074 53.2207 67.5357C53.2207 72.6641 57.3781 76.8214 62.5064 76.8214Z" fill="white" stroke="#C69C6D" stroke-miterlimit="10"/>
<path d="M62.5098 70.8928C64.4428 70.8928 66.0098 69.3258 66.0098 67.3928C66.0098 65.4598 64.4428 63.8928 62.5098 63.8928C60.5768 63.8928 59.0098 65.4598 59.0098 67.3928C59.0098 69.3258 60.5768 70.8928 62.5098 70.8928Z" fill="#C69C6D" stroke="#C69C6D" stroke-miterlimit="10"/>
<line x1="63.1598" y1="31.8928" x2="63.1598" y2="57.8928" stroke="#C69C6D" stroke-width="0.3"/>
<line y1="-0.15" x2="26" y2="-0.15" transform="matrix(1.78233e-09 -1 -1 -1.78233e-09 63.0127 107.75)" stroke="#C69C6D" stroke-width="0.3"/>
<line x1="23.5217" y1="66.7627" x2="49.5217" y2="66.8036" stroke="#C69C6D" stroke-width="0.3"/>
<line y1="-0.15" x2="26" y2="-0.15" transform="matrix(-0.999999 0.00157213 0.00157213 0.999999 101.876 66.9127)" stroke="#C69C6D" stroke-width="0.3"/>
<path d="M62.5098 114.893C88.7433 114.893 110.01 93.6264 110.01 67.3928C110.01 41.1593 88.7433 19.8928 62.5098 19.8928C36.2762 19.8928 15.0098 41.1593 15.0098 67.3928C15.0098 93.6264 36.2762 114.893 62.5098 114.893Z" stroke="white" stroke-width="1.11" stroke-miterlimit="10"/>
</g>
<defs>
<clipPath id="clip0_196_30778">
<rect width="130" height="130" fill="white"/>
</clipPath>
</defs>
</svg>
