<svg width="100" height="103" viewBox="0 0 100 103" fill="none" xmlns="http://www.w3.org/2000/svg">
<line x1="49.5652" y1="62" x2="99.1302" y2="62" stroke="#C59F73" stroke-width="2"/>
<line y1="-1" x2="49.5651" y2="-1" transform="matrix(-1 0 0 1 49.5652 63)" stroke="#C59F73" stroke-width="2"/>
<line x1="61.6919" y1="71" x2="61.6919" y2="102" stroke="#C59F73" stroke-width="2"/>
<line y1="-1" x2="31" y2="-1" transform="matrix(0 1 1 0 38.4382 71)" stroke="#C59F73" stroke-width="2"/>
<line x1="61.6919" y1="46" x2="61.6919" y2="55" stroke="#C59F73" stroke-width="2"/>
<line y1="-1" x2="9" y2="-1" transform="matrix(0 1 1 0 38.4382 46)" stroke="#C59F73" stroke-width="2"/>
<path d="M56.6458 0V30" stroke="#C59F73" stroke-width="2"/>
<path d="M42.4844 0V30" stroke="#C59F73" stroke-width="2"/>
<line x1="99.1301" y1="47" x2="60.6919" y2="47" stroke="#C59F73" stroke-width="2"/>
<line y1="-1" x2="38.4382" y2="-1" transform="matrix(1 0 0 -1 0 46)" stroke="#C59F73" stroke-width="2"/>
<path d="M55.6343 1C60.6919 1.33333 73.6395 5.1 84.9687 17.5C92.6564 24.2558 96.9385 39.3149 98.1186 46M98.1186 63C90.5321 85.5 80.4168 93.5 61.7035 102" stroke="#C59F73" stroke-width="2"/>
<path d="M43.4958 1C38.4382 1.33333 25.4906 5.1 14.1614 17.5C6.47378 24.2558 2.19162 39.3149 1.0115 46M1.0115 63C8.59799 85.5 18.7133 93.5 37.4267 102" stroke="#C59F73" stroke-width="2"/>
</svg>
