<svg width="14" height="30" viewBox="0 0 14 30" fill="none" xmlns="http://www.w3.org/2000/svg">
<path d="M13.6694 15.9346L1.78894 29.6435C1.59071 29.8723 1.32734 30 1.05347 30C0.779602 30 0.516241 29.8723 0.31801 29.6435L0.305217 29.628C0.208786 29.517 0.131999 29.3835 0.0795281 29.2355C0.0270569 29.0875 2.38419e-07 28.9281 2.38419e-07 28.767C2.38419e-07 28.6059 0.0270569 28.4465 0.0795281 28.2985C0.131999 28.1505 0.208786 28.0169 0.305217 27.906L11.4928 14.9974L0.305217 2.09402C0.208786 1.98307 0.131999 1.84953 0.0795281 1.70151C0.0270569 1.55349 2.38419e-07 1.3941 2.38419e-07 1.23302C2.38419e-07 1.07193 0.0270569 0.912537 0.0795281 0.764519C0.131999 0.616502 0.208786 0.482959 0.305217 0.372014L0.31801 0.356524C0.516241 0.127668 0.779602 -7.15256e-07 1.05347 -7.15256e-07C1.32734 -7.15256e-07 1.59071 0.127668 1.78894 0.356524L13.6694 14.0654C13.7738 14.186 13.857 14.331 13.9139 14.4916C13.9707 14.6523 14 14.8252 14 15C14 15.1748 13.9707 15.3477 13.9139 15.5084C13.857 15.669 13.7738 15.814 13.6694 15.9346Z" fill="#C59F73"/>
</svg>
