<svg width="14" height="30" viewBox="0 0 14 30" fill="none" xmlns="http://www.w3.org/2000/svg">
<path d="M0.33064 14.0654L12.2111 0.356523C12.4093 0.127667 12.6727 0 12.9465 0C13.2204 0 13.4838 0.127667 13.682 0.356523L13.6948 0.372013C13.7912 0.482958 13.868 0.6165 13.9205 0.764518C13.9729 0.912535 14 1.07193 14 1.23301C14 1.3941 13.9729 1.55349 13.9205 1.70151C13.868 1.84953 13.7912 1.98307 13.6948 2.09402L2.50719 15.0026L13.6948 27.906C13.7912 28.0169 13.868 28.1505 13.9205 28.2985C13.9729 28.4465 14 28.6059 14 28.767C14 28.9281 13.9729 29.0875 13.9205 29.2355C13.868 29.3835 13.7912 29.517 13.6948 29.628L13.682 29.6435C13.4838 29.8723 13.2204 30 12.9465 30C12.6727 30 12.4093 29.8723 12.2111 29.6435L0.33064 15.9346C0.226157 15.814 0.142976 15.669 0.0861413 15.5084C0.0293064 15.3477 0 15.1748 0 15C0 14.8252 0.0293064 14.6523 0.0861413 14.4916C0.142976 14.331 0.226157 14.186 0.33064 14.0654Z" fill="#C59F73"/>
</svg>
