<svg width="130" height="130" viewBox="0 0 130 130" fill="none" xmlns="http://www.w3.org/2000/svg">
<path d="M95.9492 92.7332C95.9492 95.7155 93.5316 98.1332 90.5492 98.1332H37.3492C34.3669 98.1332 31.9492 95.7155 31.9492 92.7332V85.332C31.9492 83.0131 33.8291 81.1332 36.148 81.1332C45.8277 81.1332 75.7369 81.1332 90.5525 81.1332C93.5349 81.1332 95.9492 83.5508 95.9492 86.5332V92.7332Z" fill="white" stroke="#C69C6D" stroke-miterlimit="10"/>
<path d="M95.4495 93.1832C95.4495 94.2878 94.5541 95.1832 93.4495 95.1832H34.3066C33.2021 95.1832 32.3066 94.2878 32.3066 93.1832V84.3746C32.3066 84.2926 32.3732 84.2261 32.4552 84.2261C42.8144 84.2261 80.2401 84.2261 93.4664 84.2261C94.571 84.2261 95.4495 85.1215 95.4495 86.2261V93.1832Z" fill="#C69C6D" stroke="#C69C6D" stroke-width="0.81" stroke-miterlimit="10"/>
<path d="M35.4492 81.1332C37.6592 80.0746 39.1939 78.5617 41.6639 75.776C47.5297 69.1291 47.8776 60.7768 47.5672 56.3264C47.4439 54.558 48.0925 52.8127 49.3359 51.5492C49.8673 51.0093 50.4085 50.4192 50.9496 49.776C51.7978 48.7694 52.5196 47.7769 53.134 46.8335C54.1541 45.2672 55.8378 44.2046 57.707 44.2046H65.8068" stroke="#C69C6D" stroke-miterlimit="10"/>
<path d="M92.9492 81.6332C90.7392 80.5746 88.5621 78.5617 86.0921 75.776C80.2263 69.1291 79.8784 60.7768 80.1888 56.3264C80.3121 54.558 79.6635 52.8127 78.4201 51.5492C77.8887 51.0093 77.3475 50.4192 76.8064 49.776C75.9582 48.7694 75.2364 47.7769 74.622 46.8335C73.6019 45.2672 71.9182 44.2046 70.049 44.2046H61.9492" stroke="#C69C6D" stroke-miterlimit="10"/>
<path d="M38.9492 79.1332H88.9492C87.3599 78.0539 82.8956 73.9932 80.9492 66.6332C79.9552 62.8241 79.6193 59.5665 79.8143 57.4037C79.8729 56.7531 79.3846 56.1332 78.7315 56.1332H48.9596C48.3764 56.1332 47.9185 56.6295 47.9422 57.2123C48.0487 59.8413 47.8472 63.9319 46.0921 68.5178C44.0206 73.9316 40.7885 77.3993 38.9492 79.1332Z" fill="#C69C6D" stroke="#C69C6D" stroke-miterlimit="10"/>
<path d="M64.8775 75.776C70.0059 75.776 74.1632 71.6187 74.1632 66.4903C74.1632 61.3619 70.0059 57.2046 64.8775 57.2046C59.7492 57.2046 55.5918 61.3619 55.5918 66.4903C55.5918 71.6187 59.7492 75.776 64.8775 75.776Z" fill="white" stroke="#C69C6D" stroke-miterlimit="10"/>
<path d="M64.8778 61.8475C65.3906 61.8475 65.8064 61.4318 65.8064 60.9189C65.8064 60.4061 65.3906 59.9904 64.8778 59.9904C64.365 59.9904 63.9492 60.4061 63.9492 60.9189C63.9492 61.4318 64.365 61.8475 64.8778 61.8475Z" fill="#C69C6D" stroke="#C69C6D" stroke-width="0.3" stroke-miterlimit="10"/>
<path d="M68.5917 63.7046C69.1045 63.7046 69.5202 63.2888 69.5202 62.776C69.5202 62.2631 69.1045 61.8474 68.5917 61.8474C68.0788 61.8474 67.6631 62.2631 67.6631 62.776C67.6631 63.2888 68.0788 63.7046 68.5917 63.7046Z" fill="#C69C6D" stroke="#C69C6D" stroke-width="0.3" stroke-miterlimit="10"/>
<path d="M70.4491 67.4189C70.9619 67.4189 71.3777 67.0032 71.3777 66.4903C71.3777 65.9775 70.9619 65.5618 70.4491 65.5618C69.9362 65.5618 69.5205 65.9775 69.5205 66.4903C69.5205 67.0032 69.9362 67.4189 70.4491 67.4189Z" fill="#C69C6D" stroke="#C69C6D" stroke-width="0.3" stroke-miterlimit="10"/>
<path d="M68.5917 71.1331C69.1045 71.1331 69.5202 70.7174 69.5202 70.2046C69.5202 69.6917 69.1045 69.276 68.5917 69.276C68.0788 69.276 67.6631 69.6917 67.6631 70.2046C67.6631 70.7174 68.0788 71.1331 68.5917 71.1331Z" fill="#C69C6D" stroke="#C69C6D" stroke-width="0.3" stroke-miterlimit="10"/>
<path d="M64.8778 72.9903C65.3906 72.9903 65.8064 72.5746 65.8064 72.0618C65.8064 71.5489 65.3906 71.1332 64.8778 71.1332C64.365 71.1332 63.9492 71.5489 63.9492 72.0618C63.9492 72.5746 64.365 72.9903 64.8778 72.9903Z" fill="#C69C6D" stroke="#C69C6D" stroke-width="0.3" stroke-miterlimit="10"/>
<path d="M61.1639 71.1331C61.6768 71.1331 62.0925 70.7174 62.0925 70.2046C62.0925 69.6917 61.6768 69.276 61.1639 69.276C60.6511 69.276 60.2354 69.6917 60.2354 70.2046C60.2354 70.7174 60.6511 71.1331 61.1639 71.1331Z" fill="#C69C6D" stroke="#C69C6D" stroke-width="0.3" stroke-miterlimit="10"/>
<path d="M59.3065 67.4189C59.8193 67.4189 60.2351 67.0032 60.2351 66.4903C60.2351 65.9775 59.8193 65.5618 59.3065 65.5618C58.7937 65.5618 58.3779 65.9775 58.3779 66.4903C58.3779 67.0032 58.7937 67.4189 59.3065 67.4189Z" fill="#C69C6D" stroke="#C69C6D" stroke-width="0.3" stroke-miterlimit="10"/>
<path d="M61.1639 63.7046C61.6768 63.7046 62.0925 63.2888 62.0925 62.776C62.0925 62.2631 61.6768 61.8474 61.1639 61.8474C60.6511 61.8474 60.2354 62.2631 60.2354 62.776C60.2354 63.2888 60.6511 63.7046 61.1639 63.7046Z" fill="#C69C6D" stroke="#C69C6D" stroke-width="0.3" stroke-miterlimit="10"/>
<path d="M64.8778 67.4189C65.3906 67.4189 65.8064 67.0032 65.8064 66.4903C65.8064 65.9775 65.3906 65.5618 64.8778 65.5618C64.365 65.5618 63.9492 65.9775 63.9492 66.4903C63.9492 67.0032 64.365 67.4189 64.8778 67.4189Z" stroke="#C69C6D" stroke-width="0.3" stroke-miterlimit="10"/>
<path d="M73.9492 38.1332H54.9492V44.1332H73.9492V38.1332Z" stroke="#C69C6D" stroke-miterlimit="10"/>
<path d="M22.1631 53.3046C24.5031 56.9075 29.3689 56.9818 31.4489 57.0189C31.9689 57.0189 39.3046 57.0746 40.7346 53.3046C41.3289 51.7261 40.7903 49.776 40.7346 49.5903C40.1403 47.566 38.8774 47.1018 38.8774 45.876C38.8774 44.0375 41.7003 42.6075 42.5917 42.1618C48.9988 38.9489 60.8288 38.5218 64.8774 38.4475V31.0189C52.6017 30.7775 43.1303 32.8946 37.0203 34.7332C26.5646 37.8903 23.5374 41.0103 22.1631 44.0189C21.8474 44.706 19.7117 49.5346 22.1631 53.3046Z" fill="#C69C6D" stroke="#C69C6D" stroke-miterlimit="10"/>
<path d="M108.334 53.2304C106.013 56.8332 101.147 56.9261 99.0673 56.9818C98.5473 56.9818 91.2116 57.0561 89.763 53.3046C89.1502 51.7261 89.7073 49.7761 89.763 49.5904C90.3573 47.5661 91.6016 47.1018 91.6016 45.8761C91.6016 44.0375 88.7787 42.6261 87.8687 42.1804C81.4616 38.9861 69.613 38.5961 65.5645 38.5404V31.1118C77.8216 30.8332 87.293 32.9132 93.403 34.7332C103.877 37.8532 106.904 40.9732 108.297 43.9818C108.613 44.6689 110.767 49.4975 108.334 53.2675V53.2304Z" fill="#C69C6D" stroke="#C69C6D" stroke-miterlimit="10"/>
<path d="M47.9492 53.4904H79.4492" stroke="#C69C6D" stroke-width="0.98" stroke-miterlimit="10"/>
<path d="M50.9492 49.776H76.9492C75.1478 46.1546 74.1635 44.2046 74.1635 44.2046H55.5921C55.5921 44.2046 53.7721 46.3774 50.9492 49.776Z" fill="#C69C6D" stroke="#C69C6D" stroke-miterlimit="10"/>
</svg>
