<?xml version="1.0" encoding="UTF-8"?>
<svg id="Layer_1" data-name="Layer 1" xmlns="http://www.w3.org/2000/svg" version="1.1" viewBox="0 0 55 40">
  <defs>
    <style>
      .cls-1, .cls-2 {
        stroke-width: .2px;
      }

      .cls-1, .cls-2, .cls-3, .cls-4, .cls-5, .cls-6, .cls-7 {
        stroke: #c69c6d;
        stroke-miterlimit: 10;
      }

      .cls-1, .cls-4, .cls-5 {
        fill: #c69c6d;
      }

      .cls-2, .cls-6, .cls-7 {
        fill: none;
      }

      .cls-3 {
        fill: #fff;
      }

      .cls-3, .cls-5, .cls-7 {
        stroke-width: .8px;
      }

      .cls-4 {
        stroke-width: .6px;
      }

      .cls-6 {
        stroke-width: .7px;
      }
    </style>
  </defs>
  <path class="cls-3" d="M42.6,29c0,2.2-1.8,4-4,4h-22.1c-2.2,0-4-1.8-4-4v-2c0-1.1.9-2,2-2h24.2c2.2,0,4,1.8,4,4h0Z"/>
  <path class="cls-4" d="M42.3,30.1c0,.8-.7,1.5-1.5,1.5H14.1c-.8,0-1.5-.7-1.5-1.5v-3.6s0,0,0,0h28.2c.8,0,1.5.7,1.5,1.5v2.1Z"/>
  <path class="cls-7" d="M14.1,25c1-.5,1.8-1.2,2.9-2.5,2.4-2.8,2.9-6.1,2.8-8.3,0-1.3.5-2.7,1.4-3.7,0,0,.1-.2.2-.2.2-.2.4-.4.5-.7.8-1.1,2.1-2,3.5-2h2.9"/>
  <path class="cls-7" d="M41.1,25.2c-1-.5-2.1-1.4-3.2-2.8-2.4-2.8-2.9-6.1-2.8-8.3,0-1.3-.5-2.7-1.4-3.7,0,0-.1-.2-.2-.2-.2-.2-.4-.4-.5-.7-.8-1.1-2.1-2-3.5-2h-2.9"/>
  <path class="cls-5" d="M15.7,24h23.6c-.7-.5-2.9-2.4-3.8-5.9-.4-1.6-.6-3-.6-4,0-.5-.4-1-.9-1h-13.3c-.4,0-.8.4-.8.8,0,1.2-.1,3-.9,5-1,2.6-2.5,4.2-3.4,5Z"/>
  <path class="cls-3" d="M27.9,22.4c2.4,0,4.4-2,4.4-4.4s-2-4.4-4.4-4.4-4.4,2-4.4,4.4,2,4.4,4.4,4.4Z"/>
  <path class="cls-1" d="M27.9,15.9c.2,0,.4-.2.4-.4s-.2-.4-.4-.4-.4.2-.4.4.2.4.4.4Z"/>
  <path class="cls-1" d="M29.7,16.7c.2,0,.4-.2.4-.4s-.2-.4-.4-.4-.4.2-.4.4.2.4.4.4Z"/>
  <path class="cls-1" d="M30.5,18.5c.2,0,.4-.2.4-.4s-.2-.4-.4-.4-.4.2-.4.4.2.4.4.4Z"/>
  <path class="cls-1" d="M29.7,20.2c.2,0,.4-.2.4-.4s-.2-.4-.4-.4-.4.2-.4.4.2.4.4.4Z"/>
  <path class="cls-1" d="M27.9,21.1c.2,0,.4-.2.4-.4s-.2-.4-.4-.4-.4.2-.4.4.2.4.4.4Z"/>
  <path class="cls-1" d="M26.2,20.2c.2,0,.4-.2.4-.4s-.2-.4-.4-.4-.4.2-.4.4.2.4.4.4Z"/>
  <path class="cls-1" d="M25.3,18.5c.2,0,.4-.2.4-.4s-.2-.4-.4-.4-.4.2-.4.4.2.4.4.4Z"/>
  <path class="cls-1" d="M26.2,16.7c.2,0,.4-.2.4-.4s-.2-.4-.4-.4-.4.2-.4.4.2.4.4.4Z"/>
  <path class="cls-2" d="M27.9,18.5c.2,0,.4-.2.4-.4s-.2-.4-.4-.4-.4.2-.4.4.2.4.4.4Z"/>
  <path class="cls-7" d="M32.2,4.7h-8.9v2.8h8.9v-2.8Z"/>
  <path class="cls-5" d="M7.8,11.8c1.1,1.7,3.4,1.7,4.4,1.7.2,0,3.7,0,4.4-1.7.3-.7,0-1.7,0-1.7-.3-1-.9-1.2-.9-1.7,0-.9,1.3-1.5,1.7-1.7,3-1.5,8.6-1.7,10.5-1.7V1.4c-5.8-.1-10.2.9-13.1,1.7-4.9,1.5-6.4,3-7,4.4-.1.3-1.2,2.6,0,4.4Z"/>
  <path class="cls-5" d="M48.4,11.8c-1.1,1.7-3.4,1.7-4.4,1.8-.2,0-3.7,0-4.4-1.7-.3-.7,0-1.7,0-1.7.3-1,.9-1.2.9-1.7,0-.9-1.3-1.5-1.8-1.7-3-1.5-8.6-1.7-10.5-1.7V1.4c5.8-.1,10.2.8,13.1,1.7,4.9,1.5,6.4,2.9,7,4.4.1.3,1.2,2.6,0,4.4h0Z"/>
  <path class="cls-6" d="M20,11.9h14.8"/>
  <path class="cls-5" d="M21.4,10.2h12.2c-.8-1.7-1.3-2.6-1.3-2.6h-8.7s-.9,1-2.2,2.6Z"/>
</svg>