<?xml version="1.0" encoding="UTF-8"?><svg id="Layer_1" xmlns="http://www.w3.org/2000/svg" width="55" height="40" viewBox="0 0 55 40"><defs><style>.cls-1,.cls-2{stroke-width:.23px;}.cls-1,.cls-2,.cls-3,.cls-4,.cls-5,.cls-6,.cls-7{stroke:#c69c6d;stroke-miterlimit:10;}.cls-1,.cls-4,.cls-5{fill:#c69c6d;}.cls-2,.cls-6,.cls-7{fill:none;}.cls-3{fill:#fff;}.cls-3,.cls-5,.cls-7{stroke-width:.76px;}.cls-4{stroke-width:.61px;}.cls-6{stroke-width:.74px;}</style></defs><path class="cls-3" d="M42.56,28.96c0,2.21-1.79,4-4,4h-22.14c-2.21,0-4-1.79-4-4v-2.03c0-1.09.89-1.98,1.98-1.98h24.17c2.21,0,4,1.79,4,4h0Z"/><path class="cls-4" d="M42.32,30.06c0,.84-.68,1.52-1.52,1.52H14.1c-.84,0-1.52-.68-1.52-1.52v-3.58s.03-.07.07-.07h28.16c.84,0,1.51.68,1.51,1.52v2.13Z"/><path class="cls-7" d="M14.06,24.96c1.04-.5,1.76-1.21,2.93-2.52,2.43-2.76,2.85-6.14,2.82-8.34-.02-1.34.47-2.66,1.36-3.67.07-.08.13-.15.2-.23.19-.23.37-.45.53-.67.84-1.14,2.11-1.95,3.52-1.95h2.94"/><path class="cls-7" d="M41.15,25.19c-1.04-.5-2.07-1.45-3.23-2.76-2.43-2.76-2.85-6.14-2.82-8.34.02-1.34-.47-2.66-1.36-3.67-.07-.08-.13-.15-.2-.23-.19-.23-.37-.45-.53-.67-.84-1.14-2.11-1.95-3.52-1.95h-2.94"/><path class="cls-5" d="M15.71,24.01h23.55c-.75-.51-2.85-2.42-3.77-5.89-.41-1.59-.59-2.97-.56-3.98.01-.49-.36-.97-.86-.97h-13.34c-.44,0-.79.38-.78.82.02,1.24-.12,3.03-.88,5.02-.98,2.55-2.5,4.18-3.36,5Z"/><path class="cls-3" d="M27.92,22.43c2.42,0,4.37-1.96,4.37-4.37s-1.96-4.37-4.37-4.37-4.37,1.96-4.37,4.37,1.96,4.37,4.37,4.37Z"/><path class="cls-1" d="M27.92,15.87c.24,0,.44-.2.44-.44s-.2-.44-.44-.44-.44.2-.44.44.2.44.44.44Z"/><path class="cls-1" d="M29.67,16.75c.24,0,.44-.2.44-.44s-.2-.44-.44-.44-.44.2-.44.44.2.44.44.44Z"/><path class="cls-1" d="M30.55,18.5c.24,0,.44-.2.44-.44s-.2-.44-.44-.44-.44.2-.44.44.2.44.44.44Z"/><path class="cls-1" d="M29.67,20.25c.24,0,.44-.2.44-.44s-.2-.44-.44-.44-.44.2-.44.44.2.44.44.44Z"/><path class="cls-1" d="M27.92,21.12c.24,0,.44-.2.44-.44s-.2-.44-.44-.44-.44.2-.44.44.2.44.44.44Z"/><path class="cls-1" d="M26.17,20.25c.24,0,.44-.2.44-.44s-.2-.44-.44-.44-.44.2-.44.44.2.44.44.44Z"/><path class="cls-1" d="M25.3,18.5c.24,0,.44-.2.44-.44s-.2-.44-.44-.44-.44.2-.44.44.2.44.44.44Z"/><path class="cls-1" d="M26.17,16.75c.24,0,.44-.2.44-.44s-.2-.44-.44-.44-.44.2-.44.44.2.44.44.44Z"/><path class="cls-2" d="M27.92,18.5c.24,0,.44-.2.44-.44s-.2-.44-.44-.44-.44.2-.44.44.2.44.44.44Z"/><path class="cls-7" d="M32.2,4.7h-8.95v2.83h8.95v-2.83Z"/><path class="cls-5" d="M7.8,11.85c1.1,1.7,3.39,1.73,4.37,1.75.24,0,3.7.03,4.37-1.75.28-.74.03-1.66,0-1.75-.28-.95-.87-1.17-.87-1.75,0-.87,1.33-1.54,1.75-1.75,3.02-1.51,8.59-1.71,10.5-1.75V1.35c-5.78-.11-10.24.88-13.12,1.75-4.92,1.49-6.35,2.96-7,4.37-.15.32-1.15,2.6,0,4.37Z"/><path class="cls-5" d="M48.39,11.81c-1.09,1.7-3.39,1.74-4.37,1.77-.24,0-3.7.04-4.38-1.73-.29-.74-.03-1.66,0-1.75.28-.95.87-1.17.87-1.75,0-.87-1.33-1.53-1.76-1.74-3.02-1.5-8.6-1.69-10.51-1.71V1.4c5.77-.13,10.23.85,13.11,1.71,4.93,1.47,6.36,2.94,7.02,4.36.15.32,1.16,2.6.02,4.37v-.02Z"/><path class="cls-6" d="M19.95,11.94h14.84"/><path class="cls-5" d="M21.36,10.19h12.25c-.85-1.71-1.31-2.62-1.31-2.62h-8.75s-.86,1.02-2.19,2.62Z"/></svg>