<svg width="70" height="70" viewBox="0 0 70 70" fill="none" xmlns="http://www.w3.org/2000/svg">
<path d="M57.5893 53.4475C57.5893 56.3657 55.2236 58.7313 52.3055 58.7313H23.0894C20.1713 58.7313 17.8057 56.3657 17.8057 53.4475V50.7738C17.8057 49.3323 18.9742 48.1638 20.4157 48.1638V48.1638C26.0383 48.1638 42.6412 48.1638 52.3085 48.1638C55.2266 48.1638 57.5893 50.5294 57.5893 53.4475V53.4475Z" fill="white" stroke="#C69C6D" stroke-miterlimit="10"/>
<path d="M57.2796 54.8975C57.2796 56.0021 56.3842 56.8975 55.2796 56.8975H20.0288C18.9242 56.8975 18.0288 56.0021 18.0288 54.8975V50.1787C18.0288 50.1277 18.0702 50.0863 18.1212 50.0863V50.0863C24.3731 50.0863 46.484 50.0863 55.2909 50.0863C56.3954 50.0863 57.2796 50.9818 57.2796 52.0863V54.8975Z" fill="#C69C6D" stroke="#C69C6D" stroke-width="0.81" stroke-miterlimit="10"/>
<path d="M19.9819 48.1637C21.3557 47.5057 22.3097 46.5653 23.8451 44.8336C27.0585 41.1923 27.608 36.7278 27.5611 33.8255C27.5324 32.053 28.1814 30.3129 29.3513 28.981C29.4399 28.8801 29.5286 28.777 29.6173 28.6716C29.868 28.374 30.1009 28.0784 30.3174 27.7872C31.4324 26.287 33.1 25.2083 34.9692 25.2083H38.8528" stroke="#C69C6D" stroke-miterlimit="10"/>
<path d="M55.7253 48.4746C54.3515 47.8165 52.9981 46.5653 51.4627 44.8336C48.2494 41.1923 47.6999 36.7278 47.7468 33.8255C47.7754 32.053 47.1264 30.3129 45.9566 28.981C45.868 28.8801 45.7793 28.777 45.6906 28.6716C45.4398 28.374 45.2069 28.0784 44.9904 27.7872C43.8754 26.287 42.2079 25.2083 40.3386 25.2083H36.4551" stroke="#C69C6D" stroke-miterlimit="10"/>
<path d="M22.1577 46.9205H53.2386C52.2507 46.2496 49.4756 43.7253 48.2657 39.1502C47.7184 37.0529 47.492 35.2246 47.5317 33.8999C47.5512 33.247 47.0525 32.6232 46.3993 32.6232H28.7897C28.2065 32.6232 27.7496 33.1197 27.7597 33.7029C27.7879 35.3366 27.6017 37.6989 26.5978 40.3217C25.3102 43.6871 23.301 45.8427 22.1577 46.9205Z" fill="#C69C6D" stroke="#C69C6D" stroke-miterlimit="10"/>
<path d="M38.2751 44.8336C41.463 44.8336 44.0473 42.2493 44.0473 39.0614C44.0473 35.8735 41.463 33.2892 38.2751 33.2892C35.0872 33.2892 32.5029 35.8735 32.5029 39.0614C32.5029 42.2493 35.0872 44.8336 38.2751 44.8336Z" fill="white" stroke="#C69C6D" stroke-miterlimit="10"/>
<path d="M38.2755 36.1753C38.5942 36.1753 38.8527 35.9169 38.8527 35.5981C38.8527 35.2793 38.5942 35.0209 38.2755 35.0209C37.9567 35.0209 37.6982 35.2793 37.6982 35.5981C37.6982 35.9169 37.9567 36.1753 38.2755 36.1753Z" fill="#C69C6D" stroke="#C69C6D" stroke-width="0.3" stroke-miterlimit="10"/>
<path d="M40.5841 37.3298C40.9028 37.3298 41.1613 37.0714 41.1613 36.7526C41.1613 36.4338 40.9028 36.1754 40.5841 36.1754C40.2653 36.1754 40.0068 36.4338 40.0068 36.7526C40.0068 37.0714 40.2653 37.3298 40.5841 37.3298Z" fill="#C69C6D" stroke="#C69C6D" stroke-width="0.3" stroke-miterlimit="10"/>
<path d="M41.7384 39.6387C42.0571 39.6387 42.3156 39.3803 42.3156 39.0615C42.3156 38.7427 42.0571 38.4843 41.7384 38.4843C41.4196 38.4843 41.1611 38.7427 41.1611 39.0615C41.1611 39.3803 41.4196 39.6387 41.7384 39.6387Z" fill="#C69C6D" stroke="#C69C6D" stroke-width="0.3" stroke-miterlimit="10"/>
<path d="M40.5841 41.9475C40.9028 41.9475 41.1613 41.6891 41.1613 41.3703C41.1613 41.0515 40.9028 40.7931 40.5841 40.7931C40.2653 40.7931 40.0068 41.0515 40.0068 41.3703C40.0068 41.6891 40.2653 41.9475 40.5841 41.9475Z" fill="#C69C6D" stroke="#C69C6D" stroke-width="0.3" stroke-miterlimit="10"/>
<path d="M38.2755 43.1019C38.5942 43.1019 38.8527 42.8435 38.8527 42.5247C38.8527 42.2059 38.5942 41.9475 38.2755 41.9475C37.9567 41.9475 37.6982 42.2059 37.6982 42.5247C37.6982 42.8435 37.9567 43.1019 38.2755 43.1019Z" fill="#C69C6D" stroke="#C69C6D" stroke-width="0.3" stroke-miterlimit="10"/>
<path d="M35.9669 41.9475C36.2857 41.9475 36.5441 41.6891 36.5441 41.3703C36.5441 41.0515 36.2857 40.7931 35.9669 40.7931C35.6481 40.7931 35.3896 41.0515 35.3896 41.3703C35.3896 41.6891 35.6481 41.9475 35.9669 41.9475Z" fill="#C69C6D" stroke="#C69C6D" stroke-width="0.3" stroke-miterlimit="10"/>
<path d="M34.8121 39.6387C35.1309 39.6387 35.3893 39.3803 35.3893 39.0615C35.3893 38.7427 35.1309 38.4843 34.8121 38.4843C34.4933 38.4843 34.2349 38.7427 34.2349 39.0615C34.2349 39.3803 34.4933 39.6387 34.8121 39.6387Z" fill="#C69C6D" stroke="#C69C6D" stroke-width="0.3" stroke-miterlimit="10"/>
<path d="M35.9669 37.3298C36.2857 37.3298 36.5441 37.0714 36.5441 36.7526C36.5441 36.4338 36.2857 36.1754 35.9669 36.1754C35.6481 36.1754 35.3896 36.4338 35.3896 36.7526C35.3896 37.0714 35.6481 37.3298 35.9669 37.3298Z" fill="#C69C6D" stroke="#C69C6D" stroke-width="0.3" stroke-miterlimit="10"/>
<path d="M38.2755 39.6387C38.5942 39.6387 38.8527 39.3803 38.8527 39.0615C38.8527 38.7427 38.5942 38.4843 38.2755 38.4843C37.9567 38.4843 37.6982 38.7427 37.6982 39.0615C37.6982 39.3803 37.9567 39.6387 38.2755 39.6387Z" stroke="#C69C6D" stroke-width="0.3" stroke-miterlimit="10"/>
<path d="M43.9143 21.4341H32.1035V25.1638H43.9143V21.4341Z" stroke="#C69C6D" stroke-miterlimit="10"/>
<path d="M11.723 30.865C13.1776 33.1046 16.2022 33.1507 17.4952 33.1738C17.8184 33.1738 22.3785 33.2085 23.2674 30.865C23.6368 29.8837 23.302 28.6715 23.2674 28.5561C22.898 27.2978 22.1129 27.0092 22.1129 26.2472C22.1129 25.1043 23.8677 24.2154 24.4218 23.9384C28.4046 21.9412 35.7584 21.6757 38.275 21.6295V17.0118C30.6442 16.8617 24.7566 18.1777 20.9585 19.3206C14.459 21.2832 12.5773 23.2226 11.723 25.0928C11.5268 25.5199 10.1992 28.5215 11.723 30.865Z" fill="#C69C6D" stroke="#C69C6D" stroke-miterlimit="10"/>
<path d="M65.2888 30.8189C63.8457 33.0585 60.8211 33.1162 59.5281 33.1508C59.2049 33.1508 54.6449 33.197 53.7444 30.865C53.3635 29.8838 53.7098 28.6716 53.7444 28.5562C54.1138 27.2978 54.8873 27.0092 54.8873 26.2473C54.8873 25.1044 53.1326 24.227 52.5669 23.95C48.5841 21.9643 41.2188 21.7219 38.7021 21.6873V17.0695C46.3214 16.8964 52.209 18.1893 56.0071 19.3207C62.5181 21.2601 64.3999 23.1996 65.2657 25.0698C65.4619 25.4969 66.8011 28.4984 65.2888 30.8419V30.8189Z" fill="#C69C6D" stroke="#C69C6D" stroke-miterlimit="10"/>
<path d="M27.7524 30.9804H47.3334" stroke="#C69C6D" stroke-width="0.98" stroke-miterlimit="10"/>
<path d="M29.6167 28.6716H45.7788C44.659 26.4204 44.0471 25.2083 44.0471 25.2083H32.5028C32.5028 25.2083 31.3714 26.5589 29.6167 28.6716Z" fill="#C69C6D" stroke="#C69C6D" stroke-miterlimit="10"/>
</svg>
