<svg width="21" height="28" viewBox="0 12 21 20" fill="none" xmlns="http://www.w3.org/2000/svg">
<path d="M9.84579 18.7638L0.249566 10.2778C0.0893672 10.1362 0 9.9481 0 9.75248C0 9.55686 0.0893672 9.36874 0.249566 9.22715L0.260409 9.21801C0.33807 9.14913 0.43155 9.09429 0.535162 9.05681C0.638775 9.01933 0.750353 9 0.86311 9C0.975867 9 1.08745 9.01933 1.19106 9.05681C1.29467 9.09429 1.38815 9.14913 1.46581 9.21801L10.5018 17.2092L19.5342 9.21801C19.6118 9.14913 19.7053 9.09429 19.8089 9.05681C19.9126 9.01933 20.0241 9 20.1369 9C20.2496 9 20.3612 9.01933 20.4648 9.05681C20.5684 9.09429 20.6619 9.14913 20.7396 9.21801L20.7504 9.22715C20.9106 9.36874 21 9.55686 21 9.75248C21 9.9481 20.9106 10.1362 20.7504 10.2778L11.1542 18.7638C11.0698 18.8385 10.9683 18.8979 10.8559 18.9385C10.7434 18.9791 10.6223 19 10.5 19C10.3777 19 10.2566 18.9791 10.1441 18.9385C10.0317 18.8979 9.93018 18.8385 9.84579 18.7638Z" fill="#A67153"/>
</svg>
